<svg width="1437" height="970" viewBox="0 0 1437 970" fill="none" xmlns="http://www.w3.org/2000/svg">
<g opacity="0.2" clip-path="url(#clip0)">
<path d="M62.5215 1449.8L61.4333 1449.19C61.5929 1448.85 77.9035 1415.58 110.508 1376.3C129.657 1353.23 150.599 1332.61 172.759 1315.03C200.459 1293.06 230.146 1275.78 260.996 1263.69C298.203 1249.1 331.372 1241.52 365.38 1239.83C395.767 1238.32 423.245 1241.68 452.336 1245.25C495.348 1250.52 539.828 1255.96 602.313 1247.78C686.197 1236.79 745.04 1191.1 801.945 1146.91C828.061 1126.63 855.065 1105.66 883.951 1088.57C916.331 1069.4 947.843 1057.16 980.28 1051.14C1073.48 1033.84 1162.61 1060.18 1256.97 1088.07C1365.12 1120.03 1476.96 1153.08 1613.97 1130.94C1747.97 1109.29 1865.25 998.258 1940.05 908.921C2021.12 812.094 2071.11 719.202 2071.6 718.276L2072.67 718.938C2072.17 719.864 2022.11 812.878 1940.96 909.807C1893.28 966.747 1844.37 1013.88 1795.56 1049.91C1734.52 1094.96 1673.49 1122.66 1614.15 1132.25C1552.75 1142.17 1490.45 1141.72 1423.7 1130.87C1364.76 1121.29 1309.8 1105.05 1256.65 1089.34C1162.42 1061.49 1073.42 1035.19 980.484 1052.44C908.489 1065.81 854.685 1107.58 802.657 1147.99C774.225 1170.07 744.824 1192.9 712.518 1211.19C676.219 1231.75 640.219 1244.14 602.456 1249.09C539.824 1257.29 495.274 1251.84 452.193 1246.56C393.353 1239.36 342.54 1233.13 261.413 1264.93C191.798 1292.21 141.423 1341.03 111.424 1377.19C78.918 1416.35 62.6811 1449.47 62.5215 1449.8Z" fill="url(#paint0_linear)"/>
<path d="M57.0765 1432.82L55.972 1432.24C56.1233 1431.91 71.3416 1398.57 102.661 1359.09C121.054 1335.9 141.32 1315.16 162.904 1297.43C189.884 1275.26 219.003 1257.78 249.456 1245.47C285.901 1230.74 318.985 1222.83 353.581 1220.56C384.406 1218.55 412.511 1221.26 442.264 1224.13C486.299 1228.37 531.83 1232.76 593.382 1223.07C674.501 1210.1 730.485 1165.09 784.624 1121.56C810.487 1100.77 837.229 1079.27 866.373 1061.52C899.079 1041.61 931.414 1028.65 965.221 1021.9C1058.18 1003.58 1146.99 1027.87 1241.02 1053.59C1350.27 1083.46 1463.25 1114.36 1601.2 1087.83C1734.13 1062.67 1847.93 951.937 1919.99 863.477C1998.1 767.596 2045.34 676.513 2045.81 675.605L2046.89 676.249C2046.42 677.157 1999.11 768.368 1920.91 864.35C1874.99 920.734 1827.54 967.712 1779.9 1003.99C1720.33 1049.35 1660.27 1077.99 1601.41 1089.14C1539.58 1101.03 1476.8 1102.29 1409.47 1092.98C1350 1084.76 1294.45 1069.57 1240.72 1054.87C1146.82 1029.19 1058.14 1004.94 965.442 1023.21C890.374 1038.19 836.984 1081.11 785.356 1122.62C758.242 1144.42 730.207 1166.97 699.337 1185.23C664.691 1205.74 630.094 1218.54 593.562 1224.38C531.867 1234.1 486.262 1229.71 442.158 1225.45C384.185 1219.86 329.425 1214.58 249.889 1246.72C181.195 1274.5 132.431 1323.62 103.623 1359.93C72.3929 1399.28 57.2238 1432.49 57.0765 1432.82Z" fill="url(#paint1_linear)"/>
<path d="M51.6275 1415.83L50.5106 1415.29C50.6497 1414.96 64.7797 1381.56 94.8152 1341.87C112.451 1318.57 132.046 1297.69 153.049 1279.82C179.309 1257.47 207.863 1239.78 237.915 1227.24C315.855 1194.78 372.056 1198.83 431.554 1203.12C476.804 1206.38 523.595 1209.76 584.448 1198.34C662.826 1183.63 715.966 1139.23 767.36 1096.29C792.925 1074.93 819.356 1052.84 848.741 1034.42C881.746 1013.73 914.924 1000.07 950.167 992.641C1043.07 973.07 1131.77 995.353 1225.69 1018.95C1335.86 1046.62 1449.79 1075.25 1588.43 1044.7C1720.22 1015.66 1830.55 905.253 1899.89 817.746C1975.05 722.902 2019.58 633.794 2020.03 632.908L2021.11 633.529C2020.66 634.42 1976.07 723.652 1900.82 818.601C1856.63 874.376 1810.66 921.187 1764.19 957.734C1706.08 1003.44 1647.03 1033.13 1588.67 1045.99C1526.53 1059.68 1463.36 1062.56 1395.57 1054.79C1335.67 1047.93 1279.62 1033.85 1225.41 1020.23C1131.63 996.672 1043.05 974.418 950.404 993.933C872.116 1010.42 819.245 1054.6 768.117 1097.33C742.328 1118.87 715.66 1141.16 686.209 1159.4C653.191 1179.85 619.973 1193.01 584.665 1199.63C523.665 1211.07 476.8 1207.69 431.476 1204.43C372.117 1200.15 316.047 1196.1 238.361 1228.46C170.57 1256.75 123.419 1306.18 95.797 1342.67C65.8475 1382.23 51.7666 1415.51 51.6275 1415.83Z" fill="url(#paint2_linear)"/>
<path d="M46.1825 1398.86L45.0493 1398.35C45.1761 1398.01 58.222 1364.53 86.9647 1324.67C103.848 1301.25 122.764 1280.24 143.19 1262.22C168.73 1239.69 196.716 1221.79 226.366 1209.02C302.457 1176.34 359.91 1179.14 420.734 1182.1C467.255 1184.37 515.36 1186.72 575.509 1173.62C651.17 1157.15 699.292 1115.35 750.236 1071.1C800.873 1027.11 853.237 981.619 935.096 963.396C1027.78 942.766 1116.2 963.056 1209.82 984.541C1321.07 1010.07 1436.11 1036.48 1575.63 1001.58C1706.32 968.894 1813.16 858.812 1879.77 772.218C1951.98 678.352 1993.79 591.096 1994.21 590.228L1995.3 590.831C1994.89 591.704 1953.02 679.066 1880.73 773.041C1838.27 828.244 1793.77 874.892 1748.48 911.699C1691.84 957.725 1633.78 988.4 1575.91 1002.87C1531.28 1014.03 1486.1 1019.56 1439.05 1019.56C1420.16 1019.56 1400.97 1018.67 1381.38 1016.89C1320.97 1011.41 1264.34 998.408 1209.56 985.834C1116.08 964.379 1027.78 944.11 935.341 964.687C853.773 982.844 801.528 1028.23 751.005 1072.12C726.521 1093.39 701.206 1115.38 673.139 1133.58C641.704 1153.97 609.844 1167.49 575.746 1174.91C515.45 1188.04 467.268 1185.69 420.672 1183.42C359.984 1180.46 302.662 1177.67 226.816 1210.24C159.918 1239.04 114.361 1288.8 87.9261 1325.46C59.2898 1365.21 46.3093 1398.53 46.1825 1398.86Z" fill="url(#paint3_linear)"/>
<path d="M40.7333 1381.88L39.5837 1381.42C39.7024 1381.09 51.656 1347.53 79.1142 1307.45C95.2406 1283.94 113.482 1262.79 133.331 1244.62C158.151 1221.9 185.568 1203.8 214.822 1190.8C289.002 1157.96 347.605 1159.51 409.639 1161.15C457.544 1162.42 507.077 1163.73 566.571 1148.92C639.544 1130.75 685.064 1089.57 733.259 1045.98C783.18 1000.82 834.807 954.123 920.033 934.163C1012.46 912.519 1100.56 930.852 1193.84 950.266C1306.2 973.647 1422.39 997.826 1562.86 958.479C1692.44 922.18 1795.8 812.406 1859.69 726.707C1928.94 633.816 1968.03 548.416 1968.42 547.565L1969.52 548.147C1969.14 548.999 1930 634.513 1860.67 727.513C1819.94 782.142 1776.92 828.632 1732.8 865.695C1677.62 912.039 1620.55 943.686 1563.17 959.758C1500.2 977.399 1436.08 983.726 1367.15 979.091C1306.22 974.996 1248.97 963.083 1193.61 951.566C1100.46 932.179 1012.48 913.873 920.303 935.459C835.372 955.349 783.867 1001.94 734.057 1047C710.865 1067.98 686.88 1089.67 660.171 1107.83C630.274 1128.15 599.752 1142.02 566.857 1150.21C507.212 1165.06 457.597 1163.75 409.619 1162.48C347.711 1160.84 289.24 1159.3 215.296 1192.03C149.306 1221.35 105.357 1271.42 80.1042 1308.25C52.7442 1348.16 40.8519 1381.56 40.7333 1381.88Z" fill="url(#paint4_linear)"/>
<path d="M35.2842 1364.9L34.1224 1364.47C34.2287 1364.14 45.0942 1330.5 71.2637 1290.25C86.6333 1266.61 104.2 1245.34 123.472 1227.02C147.567 1204.11 174.42 1185.8 203.277 1172.58C236.172 1157.56 268.343 1148.46 304.523 1143.93C336.457 1139.93 366.492 1140.08 398.291 1140.25C447.685 1140.5 498.76 1140.77 557.632 1124.19C627.95 1104.39 670.934 1063.83 716.437 1020.89C765.528 974.573 816.288 926.676 904.966 904.909C997.081 882.299 1084.83 898.709 1177.73 916.082C1291.25 937.311 1408.63 959.265 1550.07 915.355C1678.56 875.461 1778.45 765.987 1839.61 681.174C1905.9 589.253 1942.25 505.714 1942.61 504.88L1943.72 505.436C1943.36 506.27 1906.96 589.946 1840.58 681.985C1801.59 736.045 1760.04 782.38 1717.09 819.695C1663.37 866.352 1607.29 898.966 1550.41 916.628C1486.99 936.314 1422.36 944.41 1352.83 941.368C1291.34 938.679 1233.48 927.853 1177.52 917.391C1084.74 900.042 997.114 883.653 905.236 906.205C816.861 927.898 766.215 975.684 717.243 1021.9C695.319 1042.58 672.652 1063.97 647.264 1082.09C618.865 1102.36 589.643 1116.55 557.939 1125.48C498.907 1142.1 447.754 1141.84 398.279 1141.58C335.262 1141.24 275.74 1140.94 203.748 1173.8C138.682 1203.61 96.341 1253.97 72.2824 1290.97C46.2151 1331.07 35.3905 1364.57 35.2842 1364.9Z" fill="url(#paint5_linear)"/>
<path d="M29.8352 1347.92L28.661 1347.53C28.7551 1347.2 38.5324 1313.49 63.4174 1273.04C78.0302 1249.29 94.9215 1227.88 113.617 1209.41C136.992 1186.33 163.276 1167.8 191.737 1154.36C223.278 1139.52 256.066 1129.86 291.989 1124.85C324.082 1120.37 355.921 1119.9 386.718 1119.43C437.707 1118.67 490.435 1117.88 548.706 1099.48C616.414 1078.11 656.922 1038.16 699.807 995.864C747.941 948.395 797.711 899.309 889.916 875.668C981.687 852.14 1069.04 866.66 1161.52 882.035C1276.23 901.104 1394.85 920.826 1537.3 872.241C1664.7 828.791 1761.1 719.622 1819.54 635.694C1882.88 544.735 1916.49 463.021 1916.82 462.205L1917.95 462.738C1917.62 463.554 1883.94 545.409 1820.52 636.488C1783.27 689.987 1743.2 736.16 1701.41 773.726C1649.16 820.695 1594.07 854.266 1537.67 873.503C1473.8 895.288 1408.64 905.182 1338.5 903.75C1276.44 902.479 1217.92 892.753 1161.34 883.344C1068.98 867.991 981.745 853.485 890.206 876.955C798.312 900.518 748.661 949.485 700.642 996.838C679.013 1018.17 658.583 1038.31 634.484 1056.39C607.16 1076.88 580.013 1090.98 549.053 1100.75C490.623 1119.19 437.809 1119.99 386.738 1120.76C322.72 1121.72 262.248 1122.62 192.236 1155.57C128.058 1185.9 87.3206 1236.59 64.4442 1273.77C39.6574 1314.06 29.9333 1347.58 29.8352 1347.92Z" fill="url(#paint6_linear)"/>
<path d="M24.386 1330.95L23.2037 1330.59C23.2897 1330.26 31.9746 1296.48 55.571 1255.83C69.4269 1231.96 85.6433 1210.42 103.762 1191.81C126.417 1168.54 152.133 1149.81 180.196 1136.14C210.825 1121.27 243.262 1111.35 279.356 1105.81C311.564 1100.86 343.775 1099.76 374.928 1098.69C427.619 1096.89 482.101 1095.02 539.771 1074.76C604.919 1051.88 643.021 1012.52 683.366 970.847C730.415 922.246 779.069 871.995 874.861 846.414C966.252 822.01 1053.18 834.685 1145.2 848.102C1261.15 865.007 1381.04 882.488 1524.53 829.117C1650.82 782.137 1743.74 673.29 1799.45 590.25C1859.83 500.242 1890.72 420.318 1891.03 419.52L1892.16 420.023C1891.85 420.821 1860.92 500.864 1800.46 590.996C1764.94 643.935 1726.34 689.952 1685.72 727.764C1634.94 775.048 1580.84 809.566 1524.92 830.365C1460.58 854.301 1394.88 866.025 1324.09 866.215C1261.45 866.387 1202.26 857.753 1145.03 849.407C1053.13 836.008 966.318 823.35 875.156 847.692C779.682 873.186 731.152 923.317 684.217 971.795C663.865 992.818 644.637 1012.68 621.785 1030.71C595.882 1051.15 569.945 1065.55 540.155 1076.01C482.322 1096.33 427.75 1098.19 374.973 1100C312.91 1102.12 248.731 1104.32 180.708 1137.33C117.454 1168.15 78.3247 1219.14 56.6387 1256.48C33.1242 1296.98 24.4719 1330.61 24.386 1330.95Z" fill="url(#paint7_linear)"/>
<path d="M18.9369 1313.96L17.7423 1313.66C17.816 1313.31 25.4128 1279.47 47.7205 1238.62C60.8196 1214.64 76.361 1192.97 93.9028 1174.21C115.838 1150.75 140.985 1131.81 168.652 1117.91C198.38 1103.04 230.433 1092.86 266.645 1086.8C298.923 1081.4 331.474 1079.69 362.954 1078.04C417.44 1075.17 473.78 1072.21 530.828 1050.05C593.468 1025.72 629.243 986.922 667.121 945.851C712.959 896.148 760.361 844.751 859.79 817.172C950.764 791.94 1037.23 802.808 1128.77 814.315C1181.86 820.99 1235.79 827.768 1292.32 827.768C1360.6 827.768 1432.66 817.891 1511.74 786.008C1636.97 735.524 1726.41 626.964 1779.39 544.788C1836.8 455.728 1864.94 377.629 1865.22 376.854L1866.37 377.33C1866.09 378.111 1837.89 456.359 1780.39 545.546C1746.62 597.931 1709.49 643.793 1670.04 681.853C1620.72 729.44 1567.6 764.902 1512.17 787.253C1477.42 801.259 1443.17 811.441 1407.47 818.376C1375.8 824.527 1343.8 827.943 1309.64 828.817C1246.38 830.439 1186.52 822.913 1128.62 815.634C1037.2 804.143 950.846 793.288 860.097 818.459C760.991 845.95 713.712 897.215 667.988 946.791C648.875 967.513 630.822 987.09 609.181 1005.09C584.652 1025.49 559.886 1040.17 531.241 1051.3C474.018 1073.53 417.584 1076.5 363.011 1079.36C300.174 1082.67 235.199 1086.08 169.167 1119.12C106.805 1150.46 69.2755 1201.77 48.776 1239.3C26.5664 1279.96 19.0105 1313.62 18.9369 1313.96Z" fill="url(#paint8_linear)"/>
<path d="M13.488 1296.98L12.2852 1296.72C12.3466 1296.38 18.8552 1262.45 39.8743 1221.42C52.2207 1197.33 67.083 1175.52 84.048 1156.62C105.259 1132.98 129.841 1113.83 157.111 1099.7C221.384 1066.53 287.194 1061.93 350.836 1057.48C407.205 1053.54 465.492 1049.46 521.894 1025.34C582.083 999.612 615.612 961.359 651.105 920.856C695.602 870.081 741.616 817.578 844.732 787.936C935.251 761.918 1021.23 771.023 1112.25 780.665C1230.78 793.218 1353.34 806.198 1498.96 742.901C1623.12 688.934 1709.07 580.682 1759.32 499.373C1813.77 411.259 1839.17 334.95 1839.42 334.188L1840.58 334.629C1840.33 335.392 1814.88 411.854 1760.34 500.106C1728.31 551.939 1692.66 597.648 1654.38 635.95C1606.51 683.841 1554.38 720.239 1499.42 744.127C1464.41 759.342 1429.9 770.603 1393.9 778.549C1361.95 785.599 1329.66 789.84 1295.17 791.508C1283.74 792.058 1272.41 792.31 1261.19 792.31C1209.67 792.31 1160.24 787.072 1112.14 781.979C1021.23 772.35 935.358 763.254 845.055 789.214C742.275 818.76 696.383 871.122 652.001 921.765C634.095 942.196 617.179 961.5 596.708 979.467C573.5 999.837 549.871 1014.81 522.348 1026.57C465.762 1050.76 407.377 1054.84 350.914 1058.79C287.386 1063.24 221.699 1067.83 157.639 1100.89C96.1816 1132.74 60.2593 1184.36 40.9462 1222.07C20.0212 1262.91 13.5493 1296.64 13.488 1296.98Z" fill="url(#paint9_linear)"/>
<path d="M8.03878 1280L6.82788 1279.78C6.88107 1279.44 12.2974 1245.44 32.0279 1204.22C43.6174 1180.01 57.8006 1158.07 74.1929 1139.01C94.6843 1115.19 118.698 1095.83 145.567 1081.47C207.888 1048.3 274.336 1042.55 338.592 1036.99C396.92 1031.94 457.237 1026.72 512.955 1000.62C570.764 973.549 602.12 935.794 635.318 895.822C678.346 844.01 722.839 790.435 829.673 758.677C919.71 731.913 1005.17 739.303 1095.66 747.125C1139.47 750.913 1183.84 754.749 1229.65 754.749C1309.18 754.749 1393.09 743.197 1486.18 699.767C1609.27 642.348 1691.75 534.396 1739.26 453.952C1790.75 366.775 1813.4 292.239 1813.63 291.498L1814.79 291.905C1814.57 292.65 1791.87 367.344 1740.3 454.661C1710.01 505.948 1675.83 551.498 1638.71 590.047C1592.31 638.243 1541.15 675.565 1486.67 700.979C1451.39 717.434 1416.6 729.798 1380.29 738.774C1348.07 746.741 1315.47 751.816 1280.65 754.29C1216.15 758.866 1154.84 753.567 1095.56 748.439C1005.19 740.626 919.828 733.241 830 759.947C723.514 791.604 679.144 845.03 636.23 896.695C620.227 915.962 603.679 935.887 584.341 953.841C562.41 974.197 539.881 989.448 513.446 1001.82C457.539 1028.01 397.121 1033.24 338.69 1038.3C274.545 1043.85 208.219 1049.59 146.111 1082.65C85.582 1115 51.2633 1166.92 33.1365 1204.78C13.4838 1245.82 8.08789 1279.66 8.03878 1280Z" fill="url(#paint10_linear)"/>
<path d="M2.58561 1263.01L1.37061 1262.84C1.41154 1262.5 5.73969 1228.43 24.1816 1187.01C35.0143 1162.68 48.5225 1140.61 64.3379 1121.41C84.1093 1097.4 107.554 1077.83 134.026 1063.25C194.433 1030.09 261.45 1023.23 326.262 1016.59C386.62 1010.41 449.035 1004.02 504.025 975.912C559.522 947.545 588.788 910.248 619.773 870.765C661.206 817.961 704.054 763.364 814.619 729.436C904.14 701.967 989.067 707.69 1078.98 713.748C1200.22 721.919 1325.6 730.366 1473.41 656.664C1595.44 595.818 1674.43 488.184 1719.2 408.609C1767.73 322.357 1787.64 249.563 1787.83 248.835L1789.01 249.207C1788.82 249.934 1768.87 322.865 1720.27 409.261C1691.72 460.005 1659.02 505.4 1623.07 544.192C1578.12 592.688 1527.94 630.932 1473.93 657.867C1438.38 675.587 1403.31 689.075 1366.69 699.101C1334.18 708.003 1301.29 713.925 1266.12 717.209C1200.96 723.294 1138.91 719.114 1078.9 715.071C989.096 709.022 904.271 703.303 814.954 730.71C704.745 764.528 662.024 818.971 620.71 871.62C605.786 890.637 590.351 910.306 572.097 928.251C551.671 948.334 529.576 964.313 504.548 977.107C479.778 989.77 451.436 999.132 417.903 1005.72C387.986 1011.6 356.666 1014.81 326.373 1017.91C261.675 1024.53 194.776 1031.38 134.579 1064.43C74.9537 1097.28 42.2429 1149.51 25.3025 1187.54C6.93833 1228.77 2.62653 1262.68 2.58561 1263.01Z" fill="url(#paint11_linear)"/>
<path d="M-2.86759 1246.03L-4.09076 1245.9C-4.05805 1245.56 -0.822115 1211.42 16.3311 1169.81C26.407 1145.37 39.2402 1123.16 54.4788 1103.81C73.5302 1079.62 96.4107 1059.84 122.482 1045.03C181.019 1011.88 248.547 1003.95 313.859 996.279C376.306 988.946 440.877 981.362 495.086 951.209C548.349 921.584 575.603 884.702 604.46 845.655C644.179 791.913 685.252 736.336 799.556 700.195C888.533 672.06 972.904 676.161 1062.23 680.503C1184.89 686.465 1311.72 692.633 1460.63 613.552C1581.63 549.293 1657.13 441.963 1699.16 363.239C1744.72 277.914 1761.86 206.874 1762.03 206.169L1763.22 206.495C1763.05 207.205 1745.87 278.39 1700.24 363.86C1673.44 414.063 1642.22 459.308 1607.43 498.338C1563.94 547.133 1514.73 586.295 1461.17 614.738C1311.98 693.97 1184.99 687.796 1062.18 681.827C972.957 677.488 888.684 673.392 799.904 701.464C685.972 737.487 645.022 792.896 605.422 846.479C591.537 865.267 577.178 884.693 559.972 902.651C540.708 922.757 519.668 939.022 495.65 952.381C471.224 965.97 442.673 976.155 408.367 983.527C377.759 990.105 345.342 993.911 313.99 997.592C248.797 1005.25 181.379 1013.17 123.05 1046.2C64.3297 1079.55 33.2265 1132.1 17.4684 1170.3C0.388762 1211.72 -2.83487 1245.69 -2.86759 1246.03Z" fill="url(#paint12_linear)"/>
<path d="M-8.32076 1229.05L-9.54395 1228.96C-9.5235 1228.62 -7.37577 1194.4 8.48468 1152.6C17.8038 1128.04 29.962 1105.71 44.6197 1086.21C62.947 1061.83 85.2629 1041.85 110.937 1026.81C167.65 993.664 235.649 984.7 301.41 976.032C365.993 967.518 432.773 958.713 486.147 926.495C537.275 895.632 562.619 859.147 589.451 820.519C608.314 793.363 627.82 765.286 657.074 739.581C689.952 710.688 731.635 688.242 784.497 670.95C824.723 657.933 866.254 650.495 915.19 647.541C958.373 644.935 1000.5 646.197 1045.09 647.532C1070.71 648.3 1096.54 649.075 1122.67 649.075C1223.21 649.075 1328.68 637.639 1447.85 570.44C1567.83 502.791 1639.85 395.76 1679.13 317.887C1721.71 233.488 1736.1 164.194 1736.24 163.502L1737.43 163.785C1737.29 164.477 1722.89 233.92 1680.23 318.477C1655.18 368.142 1625.43 413.234 1591.81 452.501C1549.77 501.591 1501.53 541.666 1448.43 571.608C1297.99 656.435 1169.41 652.58 1045.06 648.851C956.573 646.197 872.996 643.692 784.857 672.21C667.301 710.658 628.229 766.909 590.441 821.308C577.546 839.875 564.21 859.072 547.998 877.043C529.834 897.179 509.801 913.731 486.753 927.646C462.694 942.169 433.939 953.197 398.835 961.362C367.515 968.646 333.986 973.069 301.561 977.341C235.915 985.996 168.034 994.942 111.526 1027.97C53.6974 1061.84 24.1938 1114.71 9.62608 1153.1C-6.16485 1194.71 -8.30032 1228.71 -8.32076 1229.05Z" fill="url(#paint13_linear)"/>
<path d="M-13.7739 1212.06L-15.0012 1212.03C-14.993 1211.69 -13.9376 1177.39 0.638385 1135.4C9.20067 1110.73 20.6797 1088.26 34.7647 1068.61C52.372 1044.05 74.1152 1023.86 99.397 1008.59C154.387 975.424 222.856 965.432 289.072 955.772C355.762 946.041 424.722 935.979 477.213 901.787C526.156 869.694 550.718 831.859 574.47 795.268C592.421 767.619 610.982 739.025 639.961 712.738C655.568 698.581 672.836 686.24 692.755 675.005C715.111 662.395 740.197 651.5 769.439 641.699C809.391 628.383 850.656 620.466 899.305 616.775C942.218 613.52 984.036 614.046 1028.31 614.596C1154 616.17 1283.96 617.793 1435.08 527.319C1554.14 456.442 1622.67 349.685 1659.2 272.609C1698.77 189.097 1710.33 121.502 1710.44 120.831L1711.64 121.065C1711.53 121.74 1699.94 189.525 1660.29 273.214C1637 322.362 1608.73 367.308 1576.26 406.8C1535.67 456.169 1488.37 497.108 1435.67 528.478C1284.27 619.124 1154.14 617.494 1028.29 615.92C940.381 614.821 857.348 613.78 769.803 642.96C648.434 683.638 611.346 740.772 575.476 796.022C551.651 832.724 527.016 870.672 477.851 902.911C454.185 918.325 425.238 930.177 389.348 939.146C357.333 947.143 322.716 952.197 289.236 957.077C223.135 966.72 154.78 976.693 99.9942 1009.74C43.0897 1044.1 15.1897 1097.26 1.80428 1135.81C-12.7062 1177.62 -13.7658 1211.72 -13.7739 1212.06Z" fill="url(#paint14_linear)"/>
<path d="M-20.4543 1195.09C-20.4543 1194.74 -20.4911 1160.38 -7.20391 1118.19C0.601534 1093.41 11.4057 1070.81 24.9098 1051.02C41.797 1026.27 62.9716 1005.86 87.8525 990.375C141.083 957.231 209.905 946.311 276.46 935.746C345.42 924.803 416.729 913.485 468.274 877.079C515.311 843.856 538.016 806.233 559.968 769.846C576.933 741.724 594.479 712.651 623.107 685.817C638.517 671.373 655.814 658.719 675.986 647.127C698.613 634.125 724.255 622.784 754.376 612.454C793.538 599.023 835.765 590.369 883.473 585.99C926.129 582.075 969.586 581.832 1011.62 581.599C1138.71 580.885 1270.12 580.149 1422.3 484.211C1540.28 409.829 1605.32 303.398 1639.11 227.214C1675.73 144.649 1684.55 78.826 1684.64 78.1689L1685.85 78.3497C1685.77 79.0067 1676.93 144.994 1640.23 227.734C1618.69 276.326 1591.89 321.118 1560.59 360.858C1521.46 410.535 1475.14 452.422 1422.92 485.344C1270.46 581.462 1138.88 582.199 1011.62 582.913C924.271 583.402 841.77 583.866 754.744 613.706C629.771 656.563 594.806 714.515 560.991 770.555C538.965 807.058 516.191 844.799 468.941 878.172C445.701 894.588 416.536 907.329 379.792 917.131C347.02 925.87 311.236 931.549 276.631 937.043C210.191 947.589 141.484 958.493 88.458 991.508C32.4575 1026.38 6.16108 1079.85 -6.03802 1118.56C-19.2598 1160.56 -19.2271 1194.74 -19.2271 1195.08L-20.4543 1195.09Z" fill="url(#paint15_linear)"/>
<path d="M-28.5012 1185.54L-29.7285 1185.52C-29.7203 1185.17 -28.9021 1150.63 -15.1976 1108.26C-7.14661 1083.37 3.71066 1060.68 17.0715 1040.82C33.7788 1015.99 54.4706 995.534 78.5701 980.026C129.461 947.285 196.31 935.309 260.959 923.731C330.153 911.337 401.703 898.525 453.248 860.152C498.817 826.228 520.302 787.591 541.08 750.225C557.194 721.248 573.856 691.284 601.638 663.264C616.602 648.172 633.477 634.874 653.22 622.608C675.389 608.838 700.568 596.726 730.199 585.571C769.496 570.836 810.278 561.45 858.543 556.039C901.121 551.265 942.746 550.307 986.813 549.293C1113.07 546.388 1243.64 543.381 1393.06 445.12C1509.44 368.591 1571.41 258.695 1602.9 179.979C1637.03 94.6899 1643.7 26.6488 1643.77 25.9741L1644.99 26.1065C1644.92 26.7855 1638.22 95.0294 1604.03 180.504C1583.95 230.706 1558.45 276.948 1528.24 317.953C1490.48 369.213 1445.21 412.378 1393.7 446.248C1244 544.694 1113.27 547.707 986.842 550.617C899.354 552.631 816.717 554.532 730.604 586.824C607.635 633.106 574.335 692.995 542.135 750.908C521.292 788.394 499.737 827.154 453.948 861.242C430.715 878.537 401.474 892.153 364.553 902.867C331.658 912.413 295.822 918.833 261.164 925.041C196.63 936.597 129.899 948.55 79.2042 981.164C24.9588 1016.06 -1.4357 1069.76 -14.0235 1108.65C-27.6749 1150.83 -28.493 1185.2 -28.5012 1185.54Z" fill="url(#paint16_linear)"/>
<path d="M-37.7712 1176.01L-38.9985 1175.95C-38.9821 1175.6 -37.313 1140.88 -23.183 1098.33C-14.8826 1073.34 -3.97625 1050.56 9.24146 1030.63C25.7688 1005.71 45.9738 985.207 69.292 969.692C91.1047 955.172 118.055 943.313 151.679 933.422C181.657 924.609 214.135 918.118 245.54 911.844C314.939 897.978 386.701 883.644 438.222 843.235C482.306 808.658 501.664 770.793 522.155 730.706C552.845 670.672 584.583 608.596 706.013 558.699C744.897 542.825 785.438 532.456 833.6 526.057C876.101 520.414 917.832 518.722 962.01 516.931C1087.44 511.843 1217.13 506.583 1363.81 406.034C1478.59 327.372 1537.48 214.027 1566.67 132.793C1598.31 44.7703 1602.85 -25.5239 1602.89 -26.2205L1604.11 -26.1367C1604.07 -25.4356 1599.52 45.0613 1567.82 133.269C1549.2 185.076 1525 232.779 1495.89 275.043C1459.49 327.883 1415.28 372.33 1364.47 407.149C1217.51 507.893 1087.64 513.157 962.055 518.249C874.415 521.804 791.64 525.158 706.451 559.933C585.442 609.654 553.815 671.518 523.231 731.341C513.376 750.617 503.186 770.55 490.169 789.527C475.584 810.784 458.832 828.702 438.942 844.302C387.2 884.883 315.299 899.247 245.765 913.14C183.121 925.658 118.342 938.599 69.9383 970.811C17.4397 1005.75 -9.04897 1059.68 -22.0294 1098.77C-36.0939 1141.14 -37.759 1175.67 -37.7712 1176.01Z" fill="url(#paint17_linear)"/>
<path d="M-47.0452 1166.47L-48.2684 1166.38C-48.2439 1166.03 -45.7198 1131.13 -31.1725 1088.4C-22.6266 1063.29 -11.663 1040.43 1.41155 1020.44C17.763 995.433 37.4771 974.882 60.0139 959.348C80.8284 945.001 106.72 933.07 139.173 922.867C168.132 913.763 199.698 906.796 230.224 900.059C299.794 884.702 371.737 868.821 423.196 826.313C465.783 791.136 483.963 752.345 503.21 711.279C532.268 649.288 562.312 585.183 681.832 531.824C766.276 494.453 849.305 489.621 937.207 484.507C1061.79 477.258 1190.61 469.758 1334.57 366.951C1447.72 286.163 1503.54 169.389 1530.43 85.6514C1559.59 -5.10974 1562 -77.6922 1562.02 -78.4153L1563.25 -78.3756C1563.23 -77.6525 1560.81 -4.90255 1531.61 86.0394C1514.45 139.456 1491.55 188.609 1463.54 232.139C1428.51 286.556 1385.35 332.287 1335.25 368.053C1300.64 392.776 1266.1 412.679 1229.65 428.9C1197.3 443.299 1164.27 454.41 1128.67 462.867C1062.71 478.527 998.943 482.241 937.276 485.829C849.481 490.939 766.555 495.763 682.302 533.051C563.204 586.224 533.262 650.104 504.307 711.879C495.033 731.662 485.444 752.12 473.077 771.517C459.237 793.223 443.164 811.494 423.941 827.371C372.256 870.064 300.175 885.977 230.465 901.364C166.889 915.399 106.838 928.657 60.6725 960.472C9.94112 995.436 -16.6416 1049.57 -30.0107 1088.83C-44.5048 1131.38 -47.0248 1166.13 -47.0452 1166.47Z" fill="url(#paint18_linear)"/>
<path d="M-56.3193 1156.94L-57.5425 1156.8C-57.5098 1156.46 -54.1348 1121.38 -39.1662 1078.46C-30.3748 1053.25 -19.358 1030.29 -6.42666 1010.23C9.74471 985.145 28.9761 964.547 50.7275 949C94.8929 917.44 153.237 903.322 215.006 888.37C284.715 871.501 356.797 854.054 408.162 809.382C449.239 773.659 466.241 733.964 484.245 691.936C511.654 627.948 539.996 561.781 657.646 504.933C741.138 465.005 824.326 458.687 912.4 451.998C1036.13 442.602 1164.07 432.884 1305.32 327.846C1416.88 244.911 1469.62 124.667 1494.22 38.399C1520.87 -55.0869 1521.14 -129.891 1521.14 -130.636H1522.37C1522.37 -129.891 1522.1 -54.884 1495.39 38.787C1479.7 93.8081 1458.1 144.415 1431.18 189.207C1397.52 245.207 1355.41 292.217 1306.02 328.936C1272.06 354.192 1238.07 374.64 1202.11 391.457C1170.2 406.382 1137.54 418.04 1102.28 427.091C1036.96 443.859 973.681 448.664 912.485 453.312C824.523 459.991 741.441 466.301 658.146 506.133C540.916 562.772 512.673 628.714 485.358 692.483C467.296 734.652 450.233 774.483 408.931 810.405C357.341 855.271 285.116 872.749 215.272 889.653C153.618 904.573 95.3797 918.67 51.4025 950.094C2.43428 985.106 -24.2466 1039.46 -38.0043 1078.9C-52.9239 1121.66 -56.2907 1156.59 -56.3193 1156.94Z" fill="url(#paint19_linear)"/>
<path d="M-65.5977 1147.4L-66.8168 1147.24C-66.7758 1146.88 -62.5458 1111.63 -47.1558 1068.53C-38.115 1043.21 -27.049 1020.17 -14.2609 1000.04C1.73054 974.873 20.475 954.225 41.445 938.665C83.471 907.483 140.032 892.577 199.914 876.792C269.718 858.394 341.902 839.367 393.132 792.468C432.679 756.266 448.47 715.648 465.189 672.647C477.875 640.024 490.991 606.29 515.385 573.332C542.929 536.124 581.551 504.96 633.461 478.065C716.04 435.279 799.548 427.475 887.96 419.212C1010.74 407.74 1137.69 395.875 1276.07 288.774C1386.02 203.704 1435.69 80.0121 1457.99 -8.77817C1482.16 -104.998 1480.29 -182.055 1480.27 -182.823L1481.5 -182.862C1481.52 -182.096 1483.39 -104.835 1459.18 -8.42981C1444.95 48.1961 1424.65 100.259 1398.82 146.311C1366.53 203.89 1325.47 252.183 1276.79 289.85C1243.52 315.599 1210.12 336.564 1174.68 353.941C1143.24 369.363 1110.99 381.536 1076.1 391.165C1011.48 408.997 948.743 414.861 888.067 420.531C799.769 428.785 716.371 436.575 633.993 479.26C518.433 539.135 491.94 607.268 466.323 673.163C449.546 716.315 433.698 757.068 393.93 793.478C342.479 840.58 270.155 859.645 200.209 878.08C140.441 893.834 83.9864 908.714 42.1446 939.754C-5.08083 974.788 -31.8599 1029.38 -46.0063 1069.01C-61.3472 1111.96 -65.5568 1147.05 -65.5977 1147.4Z" fill="url(#paint20_linear)"/>
<path d="M-74.8717 1137.86L-76.0867 1137.67C-76.0376 1137.31 -70.9567 1101.88 -55.1453 1058.6C-45.8589 1033.17 -34.7399 1010.04 -22.0949 989.85C-6.27938 964.6 11.9743 943.899 32.1629 928.326C72.1065 897.519 126.925 881.872 184.962 865.302C254.823 845.36 327.06 824.739 378.102 775.551C416.135 738.898 430.744 697.427 446.208 653.52C458.031 619.954 470.254 585.245 493.793 551.005C520.405 512.297 558.18 479.648 609.271 451.192C690.848 405.76 774.536 396.44 863.137 386.572C985.054 372.992 1111.12 358.953 1246.82 249.687C1355.16 162.493 1401.75 35.3656 1421.75 -55.929C1443.44 -154.886 1439.43 -234.237 1439.39 -235.026L1440.62 -235.106C1440.66 -234.317 1444.68 -154.803 1422.96 -55.6644C1410.2 2.56644 1391.19 56.084 1366.46 103.398C1335.54 162.555 1295.54 212.131 1247.56 250.745C1214.94 277.01 1182.09 298.509 1147.14 316.472C1116.13 332.406 1084.25 345.117 1049.71 355.333C985.733 374.248 923.478 381.184 863.272 387.885C774.79 397.739 691.216 407.048 609.844 452.364C496.056 515.732 471.301 586.017 447.361 653.987C431.841 698.048 417.183 739.664 378.925 776.534C327.661 825.934 255.281 846.599 185.281 866.58C127.354 883.115 72.6424 898.737 32.8788 929.402C-12.5794 964.463 -39.4526 1019.26 -53.9917 1059.06C-69.758 1102.21 -74.8226 1137.51 -74.8717 1137.86Z" fill="url(#paint21_linear)"/>
<path d="M-84.1457 1128.33L-85.3525 1128.1C-85.2952 1127.74 -79.3634 1092.14 -63.1307 1048.67C-53.5948 1023.13 -42.4225 999.916 -29.9248 979.661C-14.2893 954.326 3.47744 933.577 22.8848 917.99C60.7993 887.542 113.924 871.197 170.165 853.892C240.034 832.393 312.284 810.166 363.08 758.633C399.608 721.579 413.035 679.278 427.246 634.495C438.202 599.972 449.534 564.276 472.21 528.734C497.88 488.501 534.805 454.344 585.098 424.319C665.644 376.224 749.508 365.373 838.293 353.879C959.351 338.213 1084.53 322.01 1217.59 210.6C1324.33 121.259 1367.84 -9.33371 1385.54 -103.159C1404.73 -204.841 1398.59 -286.419 1398.53 -287.23L1399.75 -287.344C1399.77 -287.142 1401.35 -266.599 1400.54 -233.748C1399.79 -203.436 1396.79 -156.125 1386.74 -102.895C1375.45 -43.0589 1357.74 11.9137 1334.11 60.4887C1304.55 121.224 1265.6 172.083 1218.34 211.646C1186.36 238.426 1154.05 260.454 1119.58 278.99C1089 295.431 1057.5 308.673 1023.29 319.47C959.96 339.461 898.184 347.455 838.44 355.188C749.778 366.665 666.029 377.502 585.691 425.469C473.65 492.368 450.65 564.836 428.404 634.918C414.139 679.86 400.668 722.311 363.919 759.59C312.901 811.343 240.509 833.618 170.497 855.156C114.365 872.427 61.3475 888.741 23.6129 919.045C-20.0903 954.141 -47.0616 1009.16 -61.9893 1049.13C-78.173 1092.48 -84.0884 1127.97 -84.1457 1128.33Z" fill="url(#paint22_linear)"/>
<path d="M-93.4199 1118.79L-94.6227 1118.53C-94.5572 1118.17 -87.7745 1082.39 -71.1204 1038.73C-61.339 1013.09 -50.1136 989.784 -37.759 969.462C-22.3036 944.044 -5.02355 923.246 13.6023 907.646C49.5451 877.546 101.021 860.544 155.52 842.546C225.352 819.482 297.56 795.638 348.055 741.707C383.085 704.291 395.333 661.197 408.297 615.566C418.381 580.078 428.809 543.381 450.618 506.517C475.335 464.736 511.413 429.054 560.917 397.436C640.411 346.66 724.443 334.258 813.412 321.127C933.611 303.389 1057.91 285.044 1188.34 171.514C1293.47 80.0385 1333.91 -54.0067 1349.31 -150.355C1366.02 -254.77 1357.74 -338.6 1357.65 -339.438L1358.87 -339.583C1358.89 -339.376 1361.02 -318.27 1361.04 -284.523C1361.07 -253.382 1359.26 -204.788 1350.52 -150.134C1340.69 -88.6929 1324.28 -32.2698 1301.74 17.5706C1273.56 79.8887 1235.66 132.026 1189.1 172.537C1157.75 199.824 1125.98 222.382 1091.99 241.491C1061.84 258.435 1030.72 272.204 996.848 283.58C934.155 304.637 872.849 313.685 813.567 322.437C724.729 335.55 640.812 347.935 561.535 398.573C451.211 469.04 429.987 543.725 409.463 615.954C396.45 661.748 384.161 704.996 348.91 742.645C326.213 766.886 296.873 787.288 259.212 805.008C225.929 820.673 190.313 832.432 155.872 843.808C101.483 861.77 50.1137 878.737 14.3469 908.687C-27.6013 943.819 -54.6667 999.056 -69.9872 1039.21C-86.5922 1082.75 -93.3545 1118.44 -93.4199 1118.79Z" fill="url(#paint23_linear)"/>
<path d="M-102.698 1109.25L-103.897 1108.96C-103.823 1108.6 -96.1893 1072.64 -79.118 1028.8C-69.087 1003.05 -57.8125 979.66 -45.597 959.272C-30.3216 933.771 -13.5284 912.924 4.31609 897.312C38.3443 867.538 88.2289 849.922 141.038 831.268C210.784 806.635 282.907 781.163 333.021 724.789C366.566 687.056 377.64 643.19 389.369 596.749C398.577 560.281 408.097 522.57 429.026 484.37C452.778 441.019 488.005 403.793 536.727 370.567C615.142 317.089 699.341 303.125 788.482 288.338C907.834 268.54 1031.25 248.069 1159.09 132.432C1262.61 38.8268 1299.97 -98.6531 1313.09 -197.505C1327.3 -304.659 1316.89 -390.777 1316.78 -391.637L1318 -391.814C1318.03 -391.598 1320.68 -369.927 1321.55 -335.285C1322.35 -303.319 1321.74 -253.439 1314.31 -197.355C1305.95 -134.309 1290.83 -76.4312 1269.39 -25.3298C1242.58 38.5667 1205.73 91.9873 1159.88 133.446C1129.15 161.241 1097.92 184.313 1064.4 203.991C1034.67 221.438 1003.93 235.728 970.396 247.676C908.337 269.797 847.501 279.884 788.67 289.646C699.66 304.412 615.584 318.359 537.386 371.687C428.764 445.763 408.465 526.163 390.555 597.101C378.79 643.71 367.675 687.734 333.912 725.711C311.396 751.04 282.138 772.49 244.469 791.287C211.218 807.878 175.737 820.408 141.423 832.529C88.7239 851.145 38.9457 868.724 5.09337 898.344C-35.1039 933.515 -62.2675 988.981 -77.9807 1029.32C-95.0111 1073.05 -102.62 1108.9 -102.698 1109.25Z" fill="url(#paint24_linear)"/>
<path d="M-111.972 1099.71L-113.163 1099.39C-113.081 1099.03 -104.596 1062.89 -87.1034 1018.87C-76.827 993.011 -65.4993 969.528 -53.427 949.074C-38.3316 923.488 -22.0252 902.594 -4.96619 886.968C27.2048 857.507 75.5511 839.302 126.736 820.034C193.107 795.048 268.331 766.724 317.995 707.867C350.076 669.851 359.984 625.245 370.477 578.023C378.798 540.563 387.405 501.83 407.446 462.276C430.216 417.329 464.592 378.543 512.542 343.688C589.856 287.495 674.215 271.949 763.523 255.489C882.029 233.652 1004.57 211.068 1129.84 93.3407C1231.76 -2.39828 1266.05 -143.335 1276.87 -244.704C1283 -302.124 1282.41 -353.212 1280.84 -385.954C1279.14 -421.438 1275.94 -443.624 1275.91 -443.845L1277.12 -444.052C1277.16 -443.831 1280.36 -421.597 1282.06 -386.06C1283.64 -353.265 1284.23 -302.102 1278.09 -244.59C1271.19 -179.94 1257.38 -120.606 1237.03 -68.2436C1211.58 -2.76868 1175.8 51.9305 1130.65 94.3371C1100.54 122.63 1069.84 146.223 1036.79 166.465C1007.49 184.406 977.114 199.217 943.92 211.738C882.491 234.912 822.121 246.037 763.74 256.794C674.562 273.227 590.335 288.752 513.237 344.787C406.301 422.515 387.904 505.295 371.676 578.336C361.146 625.73 351.201 670.495 318.907 708.761C296.603 735.193 267.46 757.712 229.811 777.597C196.625 795.126 161.305 808.425 127.146 821.286C76.0706 840.514 27.8266 858.679 -4.16846 887.982C-42.6066 923.184 -69.8684 978.875 -85.9743 1019.4C-103.43 1063.31 -111.89 1099.35 -111.972 1099.71Z" fill="url(#paint25_linear)"/>
<path d="M-121.251 1090.17L-122.433 1089.83C-122.339 1089.46 -113.007 1053.14 -95.0932 1008.94C-84.5713 982.977 -73.1863 959.405 -61.2613 938.886C-46.3418 913.216 -30.5264 892.277 -14.2486 876.638C16.1182 847.467 62.9919 828.706 112.615 808.848C178.81 782.353 253.837 752.328 302.969 690.954C333.614 652.674 342.401 607.383 351.708 559.435C359.161 521.018 366.873 481.292 386.01 440.367C407.782 393.812 441.262 353.397 488.365 316.815C564.57 258.118 648.961 240.971 738.311 222.819C856.027 198.903 977.748 174.168 1100.6 54.2543C1200.91 -43.6231 1232.12 -188.012 1240.65 -291.904C1245.47 -350.752 1243.69 -403.123 1241.35 -436.698C1238.81 -473.078 1235.07 -495.833 1235.04 -496.057L1236.24 -496.291C1236.28 -496.066 1240.02 -473.267 1242.56 -436.831C1244.91 -403.206 1246.7 -350.761 1241.87 -291.819C1236.43 -225.564 1223.92 -164.781 1204.66 -111.157C1180.59 -44.1038 1145.85 11.8786 1101.42 55.2332C1071.89 84.0509 1041.69 108.182 1009.08 129.007C980.182 147.462 950.155 162.801 917.28 175.91C856.448 200.16 796.504 212.338 738.532 224.118C649.321 242.245 565.057 259.365 489.076 317.891C383.993 399.508 367.478 484.617 352.906 559.704C343.571 607.824 334.751 653.274 303.897 691.814C281.843 719.365 252.843 742.959 215.251 763.946C182.156 782.42 147.019 796.485 113.04 810.083C63.5278 829.897 16.7564 848.618 -13.4345 877.622C-50.1177 912.859 -77.4777 968.77 -93.9682 1009.47C-111.846 1053.59 -121.156 1089.82 -121.251 1090.17Z" fill="url(#paint26_linear)"/>
<path d="M-130.525 1080.64L-131.699 1080.26C-131.596 1079.9 -121.414 1043.39 -103.079 999.008C-92.307 972.933 -80.8729 949.273 -69.0911 928.692C-54.3516 902.943 -39.0229 881.951 -23.5307 866.302C5.08522 837.402 50.5476 818.112 98.6812 797.684C164.655 769.687 239.433 737.954 287.947 674.035C317.164 635.54 324.802 589.567 332.89 540.894C345.764 463.4 360.36 375.571 464.183 289.947C539.243 228.453 623.811 209.697 713.336 189.842C830.197 163.927 951.034 137.128 1071.36 15.1721C1170.06 -84.8394 1198.2 -232.681 1204.42 -339.094C1207.95 -399.371 1204.97 -453.029 1201.85 -487.429C1198.47 -524.708 1194.21 -548.028 1194.17 -548.257L1195.37 -548.517C1195.41 -548.283 1199.69 -524.92 1203.07 -487.588C1206.19 -453.14 1209.17 -399.406 1205.65 -339.041C1201.68 -271.18 1190.46 -208.946 1172.31 -154.062C1149.6 -85.4302 1115.92 -28.165 1072.2 16.1376C1043.28 45.4449 1013.6 70.0829 981.466 91.4537C952.985 110.395 923.327 126.246 890.787 139.91C830.59 165.191 771.104 178.383 713.582 191.138C624.195 210.963 539.763 229.687 464.924 291C361.477 376.312 346.93 463.876 334.092 541.128C325.976 589.976 318.31 636.113 288.892 674.874C267.124 703.555 238.308 728.237 200.798 750.334C167.821 769.761 132.897 784.58 99.123 798.914C51.1039 819.293 5.74385 838.539 -22.7002 867.269C-57.6243 902.541 -85.0825 958.674 -101.966 999.55C-120.265 1043.86 -130.426 1080.28 -130.525 1080.64Z" fill="url(#paint27_linear)"/>
<path d="M-139.803 1071.1L-140.969 1070.69C-140.858 1070.32 -129.825 1033.65 -111.072 989.074C-93.7553 947.915 -66.1212 891.412 -32.8171 855.963C-5.90302 827.309 38.2174 807.503 84.9274 786.534C150.635 757.032 225.115 723.597 272.917 657.113C300.731 618.432 307.227 571.801 314.108 522.437C325.215 442.752 337.803 352.436 439.998 263.068C513.892 198.753 598.623 178.374 688.324 156.8C804.33 128.9 924.288 100.051 1042.11 -23.9192C1139.21 -126.069 1164.27 -277.363 1168.2 -386.299C1170.43 -448.003 1166.25 -502.95 1162.36 -538.178C1158.14 -576.352 1153.34 -600.24 1153.29 -600.478L1154.49 -600.761C1154.54 -600.522 1159.35 -576.594 1163.58 -538.368C1167.48 -503.09 1171.65 -448.074 1169.43 -386.281C1166.92 -316.815 1157.01 -253.126 1139.94 -196.981C1118.61 -126.771 1085.98 -68.2262 1042.97 -22.9757C1014.65 6.81653 985.492 31.9528 953.824 53.8704C925.761 73.2924 896.466 89.6458 864.27 103.861C804.702 130.166 745.675 144.358 688.594 158.087C599.032 179.627 514.44 199.971 440.771 264.092C338.948 353.133 326.397 443.18 315.323 522.627C308.418 572.167 301.897 618.961 273.886 657.915C225.884 724.679 151.249 758.183 85.3979 787.746C38.8024 808.662 -5.21167 828.424 -31.9581 856.894C-65.1272 892.202 -92.6835 948.554 -109.955 989.607C-128.68 1034.13 -139.692 1070.73 -139.803 1071.1Z" fill="url(#paint28_linear)"/>
<path d="M-149.081 1061.56L-150.243 1061.13C-150.124 1060.76 -138.24 1023.9 -119.066 979.145C-101.361 937.818 -73.6363 881.109 -42.1077 845.633C-16.8422 817.204 26.0018 796.9 71.3577 775.4C136.759 744.401 210.882 709.269 257.887 640.2C284.322 601.356 289.694 554.104 295.38 504.074C304.691 422.175 315.241 329.346 415.816 236.2C488.516 169.037 573.406 147.021 663.284 123.719C778.443 93.8566 897.525 62.9755 1012.87 -62.9966C1108.37 -167.289 1130.35 -322.052 1131.98 -433.519C1132.9 -496.652 1127.54 -552.886 1122.87 -588.94C1117.82 -628 1112.48 -652.435 1112.43 -652.677L1113.62 -652.981C1113.68 -652.739 1119.03 -628.243 1124.09 -589.121C1128.76 -553.018 1134.14 -496.714 1133.21 -433.492C1132.18 -362.422 1123.56 -297.282 1107.59 -239.876C1087.62 -168.088 1056.05 -108.26 1013.74 -62.0619C986.028 -31.7892 957.383 -6.15472 926.178 16.3007C898.527 36.199 869.596 53.0505 837.736 67.8167C778.794 95.1309 720.221 110.32 663.574 125.011C573.844 148.278 489.093 170.258 416.622 237.21C316.411 330.021 305.889 422.577 296.607 504.237C293.69 529.903 290.933 554.148 285.562 577.049C279.523 602.798 271.047 623.115 258.885 640.984C211.688 710.336 137.405 745.546 71.8609 776.613C26.6155 798.055 -16.1182 818.31 -41.2159 846.546C-72.6259 881.889 -100.281 938.463 -117.949 979.696C-137.099 1024.39 -148.962 1061.19 -149.081 1061.56Z" fill="url(#paint29_linear)"/>
<path d="M-158.355 1052.02L-159.505 1051.56C-159.378 1051.19 -146.647 1014.15 -127.047 969.211C-108.953 927.717 -81.1389 870.8 -51.3817 835.298C-27.7199 807.067 11.9988 787.226 57.9929 764.254C123.042 731.764 196.769 694.934 242.869 623.282C267.955 584.298 272.209 536.446 276.717 485.785C280.501 443.242 284.416 399.252 299.847 352.675C317.479 299.461 347.506 252.57 391.643 209.326C463.12 139.296 548.166 115.629 638.206 90.5762C752.523 58.769 870.734 25.8773 983.626 -102.088C1077.53 -208.519 1096.43 -366.734 1095.77 -480.718C1095.39 -545.281 1088.82 -602.802 1083.38 -639.684C1077.49 -679.644 1071.61 -704.643 1071.56 -704.894L1072.75 -705.22C1072.8 -704.974 1078.7 -679.913 1084.59 -639.891C1090.04 -602.961 1096.61 -545.373 1096.99 -480.727C1097.41 -408.053 1090.09 -341.461 1075.22 -282.794C1056.62 -209.428 1026.11 -148.321 984.51 -101.175C957.383 -70.4261 929.25 -44.2977 898.503 -21.3043C871.261 -0.929993 842.695 16.4153 811.166 31.7238C752.846 60.0433 694.718 76.2159 638.505 91.8593C548.616 116.872 463.709 140.496 392.461 210.305C293.854 306.922 285.394 402.012 277.932 485.908C275.617 511.935 273.432 536.516 268.658 559.646C263.295 585.629 255.42 606.091 243.875 624.036C197.583 695.984 123.697 732.892 58.5042 765.458C12.6329 788.371 -26.9835 808.161 -50.4735 836.188C-80.1244 871.568 -107.877 928.356 -125.935 969.767C-145.51 1014.66 -158.228 1051.65 -158.355 1052.02Z" fill="url(#paint30_linear)"/>
<path d="M-166.525 1049.89L-167.703 1049.51C-167.6 1049.14 -157.361 1012.25 -140.441 966.901C-124.818 925.028 -100.145 867.163 -71.3167 829.293C-47.0944 797.477 -4.40167 774.991 40.7947 751.186C102.784 718.537 173.041 681.526 217.105 611.056C242.881 569.831 246.494 521.106 250.323 469.521C256.463 386.74 263.422 292.914 358.945 194.864C429.394 122.551 513.667 97.2914 602.894 70.5459C713.36 37.4335 827.587 3.19708 934.883 -121.567C1025.63 -227.778 1041.67 -383.573 1039.14 -495.56C1037.72 -558.998 1030.31 -615.408 1024.35 -651.558C1017.89 -690.732 1011.69 -715.216 1011.62 -715.458L1012.81 -715.807C1012.87 -715.564 1019.08 -691.036 1025.55 -651.813C1031.52 -615.619 1038.94 -559.134 1040.37 -495.617C1041.98 -424.207 1035.85 -358.636 1022.17 -300.726C1005.05 -228.302 975.984 -167.721 935.779 -120.663C909.986 -90.6725 883.154 -65.0822 853.74 -42.4195C827.673 -22.3317 800.26 -5.10529 769.942 10.2515C713.843 38.6637 657.605 55.5241 603.213 71.8244C514.141 98.5215 430.012 123.742 359.783 195.825C264.6 293.523 257.662 387.083 251.542 469.626C249.578 496.081 247.725 521.067 243.111 544.832C237.919 571.555 229.979 592.833 218.119 611.798C173.876 682.558 103.459 719.652 41.3306 752.377C-3.74301 776.119 -46.3171 798.544 -70.3717 830.135C-99.1021 867.869 -123.713 925.601 -139.304 967.386C-156.195 1012.69 -166.422 1049.52 -166.525 1049.89Z" fill="url(#paint31_linear)"/>
<path d="M-174.698 1047.76L-175.897 1047.47C-175.819 1047.1 -168.083 1010.34 -153.847 964.564C-140.703 922.298 -119.172 863.481 -91.2434 823.293C-66.5547 787.764 -23.0152 763.633 23.0771 738.087C82.1825 705.327 149.171 668.194 191.34 598.839C217.808 555.307 220.741 505.731 223.842 453.245C228.657 371.81 234.115 279.505 326.238 180.415C395.53 105.885 478.972 79.1125 567.311 50.7665C674.133 16.4902 784.587 -18.95 886.128 -141.029C974.046 -246.732 987.194 -400.142 982.743 -510.223C977.92 -629.547 951.955 -725.066 951.693 -726.018L952.871 -726.393C952.936 -726.155 959.51 -702.126 966.592 -663.651C973.129 -628.145 981.45 -572.719 983.974 -510.282C986.813 -440.093 981.896 -375.535 969.365 -318.402C953.693 -246.953 925.998 -186.98 887.044 -140.147C862.634 -110.796 837.119 -85.6463 809.039 -63.2568C784.141 -43.4028 757.874 -26.2648 728.738 -10.8594C674.808 17.6541 620.341 35.132 567.667 52.032C479.479 80.3295 396.18 107.053 327.109 181.351C235.317 280.092 229.872 372.128 225.074 453.334C221.961 506 219.019 555.745 192.371 599.566C173.446 630.69 148.005 658.009 114.59 683.087C85.2057 705.142 53.9102 722.487 23.6416 739.264C-22.3197 764.739 -65.7366 788.805 -90.2575 824.086C-118.092 864.134 -139.565 922.81 -152.681 964.982C-166.897 1010.7 -174.62 1047.39 -174.698 1047.76Z" fill="url(#paint32_linear)"/>
<path d="M-182.872 1045.62L-184.087 1045.43C-184.034 1045.06 -178.814 1008.41 -167.269 962.201C-156.608 919.539 -138.224 859.764 -111.166 817.287C-86.0971 777.932 -41.903 752.2 4.88464 724.957C61.2655 692.131 125.165 654.922 165.579 586.617C192.739 540.713 194.948 490.314 197.284 436.955C199.076 396.091 200.925 353.839 213.451 308.703C227.7 257.355 253.898 210.662 293.543 165.962C361.689 89.1256 444.264 60.7487 531.687 30.7053C634.782 -4.7262 741.383 -41.3613 837.388 -160.496C922.295 -265.859 932.568 -416.852 926.235 -524.964C919.366 -642.17 892.047 -735.644 891.773 -736.573L892.943 -736.975C893.217 -736.044 920.581 -642.439 927.462 -525.078C931.504 -456.133 927.793 -392.598 916.433 -336.228C902.225 -265.732 875.945 -206.319 838.321 -159.627C815.236 -130.976 790.998 -106.321 764.231 -84.2442C740.483 -64.6591 715.349 -47.64 687.391 -32.2037C635.625 -3.62402 582.975 14.4709 532.063 31.9662C444.796 61.9568 362.364 90.2853 294.435 166.879C205.981 266.614 202.017 357.146 198.515 437.021C196.171 490.56 193.954 541.133 166.619 587.331C148.471 618 124.2 645.002 92.4097 669.886C64.4074 691.808 34.4456 709.251 5.46964 726.125C-41.183 753.289 -85.2504 778.946 -110.152 818.041C-137.111 860.36 -155.442 919.974 -166.079 962.531C-177.607 1008.67 -182.819 1045.26 -182.872 1045.62Z" fill="url(#paint33_linear)"/>
<path d="M-191.046 1043.49L-192.269 1043.39C-192.244 1043.02 -189.552 1006.47 -180.708 959.824C-172.538 916.756 -157.3 856.025 -131.085 811.29C-105.717 767.998 -61.0404 740.71 -13.7372 711.821C42.6928 677.356 101.045 641.717 139.827 574.403C167.674 526.066 169.118 474.872 170.648 420.667C171.785 380.377 172.959 338.711 184.545 294.038C197.709 243.281 222.672 196.659 260.853 151.515C327.817 72.3359 409.475 42.3188 495.929 10.5425C595.313 -25.9912 698.081 -63.7683 788.65 -179.961C870.541 -285.026 877.934 -433.62 869.711 -539.778C860.797 -654.851 832.14 -746.22 831.849 -747.129L833.011 -747.556C833.302 -746.644 862.008 -655.125 870.934 -539.888C876.179 -472.195 873.671 -409.674 863.48 -354.071C850.737 -284.532 825.877 -225.666 789.59 -179.11C767.806 -151.161 744.828 -126.999 719.354 -105.245C696.743 -85.9373 672.725 -69.0417 645.938 -53.5833C596.324 -24.9596 545.49 -6.27374 496.33 11.7947C410.032 43.5181 328.52 73.4822 261.765 152.409C176.596 253.096 174.085 342.141 171.867 420.708C170.333 475.093 168.885 526.463 140.862 575.1C123.443 605.337 100.26 632.039 69.9873 656.729C43.2819 678.511 14.5964 696.032 -13.14 712.972C-60.3041 741.777 -104.85 768.985 -130.054 811.996C-156.166 856.563 -171.364 917.131 -179.509 960.088C-188.337 1006.65 -191.021 1043.13 -191.046 1043.49Z" fill="url(#paint34_linear)"/>
<path d="M-199.227 1041.36L-200.454 1041.35C-200.454 1040.99 -200.307 1004.52 -194.163 957.426C-190.554 929.763 -185.613 903.904 -179.476 880.557C-171.802 851.356 -162.221 826.03 -151.008 805.281C-125.423 757.954 -80.4148 729.154 -32.7598 698.661C21.1134 664.19 76.8193 628.543 114.063 562.177C142.589 511.35 143.231 459.388 143.906 404.375C144.397 364.655 144.904 323.584 155.565 279.364C167.666 229.181 191.41 182.633 228.15 137.057C258.104 99.9016 292.701 70.8148 337.034 45.5242C376.196 23.179 416.909 7.19159 460.01 -9.73492C555.705 -47.3181 654.66 -86.1797 739.898 -199.436C818.751 -304.204 823.263 -450.379 813.166 -554.562C802.219 -667.51 772.216 -756.807 771.914 -757.697L773.067 -758.152C773.37 -757.261 803.418 -667.832 814.385 -554.73C820.829 -488.289 819.524 -426.791 810.507 -371.947C799.233 -303.354 775.796 -245.034 740.851 -198.603C655.4 -85.0642 556.286 -46.1364 460.432 -8.49591C375.161 25 294.615 56.6309 229.079 137.926C147.166 239.537 146.086 327.119 145.133 404.393C144.454 459.591 143.812 511.724 115.11 562.861C98.3702 592.688 76.2097 619.094 47.3606 643.59C21.8743 665.235 -5.58388 682.806 -32.138 699.794C-79.6498 730.194 -124.527 758.911 -149.948 805.943C-175.242 852.731 -187.294 914.243 -192.952 957.606C-199.08 1004.61 -199.227 1041 -199.227 1041.36Z" fill="url(#paint35_linear)"/>
<path d="M-208.636 1039.32C-208.661 1038.95 -211.07 1002.56 -207.638 955.019C-205.621 927.096 -202.013 900.84 -196.916 876.987C-190.538 847.15 -181.796 821.008 -170.93 799.276C-145.207 747.821 -100.002 717.549 -52.1466 685.504C-0.703415 651.051 52.4948 615.426 88.3025 549.96C117.499 496.579 117.295 443.891 117.082 388.107C116.931 348.958 116.775 308.478 126.532 264.704C137.594 215.075 160.139 168.6 195.46 122.608C210.972 102.406 227.725 84.6196 246.666 68.2266C263.581 53.5884 281.905 40.3789 302.678 27.8438C341.321 4.53296 381.457 -12.2921 423.949 -30.1049C515.978 -68.6844 611.141 -108.578 691.159 -218.897C766.959 -323.406 768.592 -467.191 756.618 -569.407C743.633 -680.212 712.313 -767.385 711.998 -768.252L713.14 -768.733C713.454 -767.864 744.832 -680.538 757.837 -569.575C765.474 -504.387 765.372 -443.911 757.53 -389.83C747.724 -322.185 725.719 -264.404 692.129 -218.09C611.906 -107.48 516.584 -67.5203 424.399 -28.8791C340.2 6.42017 260.681 39.7571 196.405 123.451C117.683 225.949 118.015 312.093 118.309 388.098C118.526 444.066 118.726 496.936 89.3621 550.63C53.403 616.374 0.0779419 652.088 -51.4961 686.624C-99.2084 718.576 -144.274 748.757 -169.846 799.902C-194.343 848.896 -203.253 911.351 -206.411 955.12C-209.839 1002.56 -207.434 1038.86 -207.409 1039.22L-208.636 1039.32Z" fill="url(#paint36_linear)"/>
<path d="M-216.81 1037.28C-216.859 1036.92 -221.838 1000.59 -221.118 952.597C-220.696 924.405 -218.422 897.762 -214.36 873.402C-209.279 842.934 -201.367 815.972 -190.841 793.266C-165.044 737.602 -119.778 705.9 -71.8568 672.338C-22.7168 637.924 28.0923 602.339 62.5461 537.733C92.4015 481.747 91.3174 428.361 90.1678 371.845C89.3824 333.266 88.5724 293.377 97.4373 250.035C107.476 200.944 128.847 154.535 162.765 108.146C177.963 87.362 194.416 69.0114 213.063 52.0364C229.709 36.8868 247.758 23.1656 268.249 10.1015C306.348 -14.197 345.874 -31.8686 387.72 -50.5809C476.112 -90.1038 567.511 -130.971 642.416 -238.372C715.136 -342.643 713.896 -484.016 700.049 -584.253C685.039 -692.914 652.398 -777.97 652.07 -778.818L653.204 -779.329C653.531 -778.482 686.229 -693.272 701.264 -584.451C710.096 -520.523 711.192 -461.072 704.528 -407.743C696.195 -341.047 675.626 -283.795 643.394 -237.584C568.285 -129.891 476.73 -88.9531 388.186 -49.364C305.141 -12.2217 226.702 22.8482 163.726 108.975C88.1469 212.324 89.7956 293.408 91.3911 371.823C92.5446 428.528 93.6328 482.09 63.6055 538.398C29.0046 603.283 -21.9313 638.952 -71.1899 673.453C-118.968 706.914 -164.099 738.519 -189.749 793.862C-213.468 845.047 -219.236 908.45 -219.895 952.624C-220.611 1000.51 -215.648 1036.72 -215.599 1037.08L-216.81 1037.28Z" fill="url(#paint37_linear)"/>
<path d="M-224.984 1035.24C-225.061 1034.88 -232.613 998.619 -234.618 950.177C-235.796 921.721 -234.855 894.684 -231.828 869.818C-228.04 838.716 -220.95 810.938 -210.76 787.261C-184.958 727.311 -139.741 694.216 -91.8736 659.181C-44.9304 624.826 3.6123 589.302 36.7855 525.516C67.2873 466.866 65.2827 412.836 63.1596 355.629C61.7482 317.619 60.2878 278.311 68.2732 235.393C77.31 186.818 97.5232 140.47 130.066 93.698C144.937 72.3271 161.079 53.3989 179.419 35.8375C195.783 20.1675 213.549 5.93054 233.734 -7.68469C271.256 -32.9884 311.948 -52.384 351.299 -71.1404C436.083 -111.554 523.751 -153.339 593.664 -257.839C663.275 -361.884 659.168 -500.837 643.459 -599.081C626.433 -705.595 592.482 -788.553 592.139 -789.376L593.259 -789.914C593.599 -789.086 627.607 -706.006 644.662 -599.336C654.68 -536.67 656.984 -478.24 651.498 -425.667C644.637 -359.914 625.512 -303.19 594.659 -257.067C524.553 -152.281 436.725 -110.417 351.794 -69.9322C269.967 -30.9249 192.682 5.9129 131.048 94.4959C58.5573 198.679 61.5191 278.443 64.3827 355.576C66.5141 412.973 68.5269 467.188 37.8532 526.16C4.53685 590.215 -44.1245 625.831 -91.1863 660.271C-138.911 695.2 -183.993 728.193 -209.651 787.812C-232.613 841.171 -235.24 905.508 -233.399 950.085C-231.402 998.417 -223.867 1034.58 -223.793 1034.94L-224.984 1035.24Z" fill="url(#paint38_linear)"/>
<path d="M-233.157 1033.2C-233.26 1032.84 -243.401 996.645 -248.13 947.747C-250.908 919.022 -251.305 891.593 -249.308 866.223C-246.813 834.491 -240.541 805.902 -230.678 781.252C-218.95 751.953 -202.668 727.09 -179.431 703.016C-158.924 681.765 -136.215 664.406 -112.173 646.029C-67.3239 611.744 -20.9453 576.295 11.0211 513.298C42.157 451.941 39.1911 397.298 36.0575 339.452C34.0284 302.001 31.9255 263.276 39.0479 220.764C47.1028 172.682 66.1788 126.396 97.3679 79.2536C111.899 57.2919 127.718 37.7862 145.739 19.6163C161.808 3.4173 179.276 -11.3443 199.145 -25.5151C236.062 -51.8419 276.034 -72.1456 314.693 -91.7837C395.902 -133.035 479.88 -175.689 544.917 -277.301C611.395 -381.157 604.411 -517.698 586.849 -613.948C567.806 -718.306 532.567 -799.121 532.215 -799.928L533.324 -800.497C533.68 -799.69 568.972 -718.752 588.048 -614.235C599.253 -552.838 602.755 -495.431 598.451 -443.612C593.071 -378.797 575.399 -322.59 545.928 -276.551C530.255 -252.067 513.245 -230.419 493.916 -210.371C476.714 -192.522 458.071 -176.377 436.925 -161.007C397.685 -132.479 355.758 -111.184 315.213 -90.5889C234.679 -49.6813 158.613 -11.0401 98.3701 80.0164C28.9106 185.006 33.1693 263.479 37.2847 339.373C40.4306 397.413 43.4046 452.241 12.101 513.932C-20.0004 577.194 -66.4935 612.736 -111.457 647.105C-159.018 683.463 -203.944 717.8 -229.549 781.776C-251.779 837.313 -251.26 902.594 -246.911 947.584C-242.194 996.362 -232.086 1032.46 -231.983 1032.82L-233.157 1033.2Z" fill="url(#paint39_linear)"/>
<path d="M-241.323 1031.15C-241.45 1030.8 -254.189 994.665 -261.646 945.31C-266.028 916.32 -267.762 888.498 -266.797 862.621C-265.59 830.255 -260.137 800.854 -250.589 775.238C-238.917 743.929 -222.705 717.558 -199.559 692.25C-179.145 669.927 -156.592 651.924 -132.713 632.872C-89.8607 598.671 -45.548 563.305 -14.7312 501.071C17.0183 436.954 13.0624 381.752 8.87332 323.306C6.23059 286.411 3.4938 248.259 9.76926 206.138C16.8548 158.537 34.8178 112.304 64.6733 64.8007C78.8523 42.2438 94.3406 22.1516 112.025 3.37323C127.784 -13.3592 144.937 -28.6544 164.471 -43.3896C200.745 -70.7568 239.96 -91.9778 277.887 -112.506C355.565 -154.543 435.886 -198.012 496.174 -296.767C559.481 -400.459 549.63 -534.588 530.219 -628.846C509.171 -731.045 472.664 -809.707 472.295 -810.491L473.392 -811.088C473.76 -810.302 510.329 -731.516 531.413 -629.163C543.8 -569.037 548.497 -512.653 545.38 -461.587C541.481 -397.714 525.273 -342.017 497.205 -296.044C482.674 -272.239 466.777 -251.093 448.613 -231.398C432.434 -213.854 414.814 -197.88 394.748 -182.558C357.496 -154.111 317.307 -132.36 278.444 -111.329C202.762 -70.3688 124.503 -28.0195 65.7001 65.537C-0.793518 171.311 4.74146 248.531 10.0924 323.209C14.2937 381.849 18.2661 437.24 -13.6553 501.698C-44.6031 564.192 -89.0262 599.65 -131.989 633.935C-179.284 671.681 -223.957 707.338 -249.455 775.731C-270.965 833.438 -267.304 899.67 -260.444 945.067C-253.006 994.295 -240.308 1030.32 -240.177 1030.68L-241.323 1031.15Z" fill="url(#paint40_linear)"/>
<path d="M-249.488 1029.11C-249.644 1028.75 -264.981 992.68 -275.175 942.871C-281.164 913.613 -284.236 885.398 -284.302 859.019C-284.384 826.021 -279.745 795.809 -270.503 769.228C-259.073 736.336 -242.489 707.624 -219.801 681.456C-199.522 658.066 -176.126 638.573 -153.499 619.724C-112.557 585.615 -70.2163 550.351 -40.4917 488.854C-8.14902 421.936 -13.1317 366.214 -18.4091 307.221C-21.6572 270.873 -25.02 233.289 -19.5832 191.544C-13.4386 144.389 3.42828 98.2037 31.9787 50.3475C57.7637 7.12958 89.73 -29.391 129.702 -61.304C165.301 -89.725 203.711 -111.876 240.86 -133.291C315.049 -176.067 391.762 -220.3 447.427 -316.229C507.522 -419.785 494.804 -551.498 473.551 -643.754C450.507 -743.783 412.748 -820.28 412.368 -821.043L413.448 -821.669C413.828 -820.907 451.653 -744.285 474.734 -644.101C488.295 -585.25 494.19 -529.893 492.259 -479.573C489.845 -416.638 475.11 -361.444 448.466 -315.528C435.044 -292.398 420.239 -271.75 403.208 -252.412C388.031 -235.177 371.414 -219.374 352.407 -204.11C317.107 -175.755 278.64 -153.577 241.437 -132.127C167.146 -89.2928 90.3232 -44.9991 33.0136 51.0617C-30.5509 157.602 -23.7558 233.599 -17.1817 307.094C-11.888 366.285 -6.88901 422.197 -39.4035 489.463C-69.2549 551.215 -111.702 586.576 -152.751 620.769C-199.69 659.869 -244.027 696.804 -269.354 769.69C-290.164 829.579 -283.353 896.769 -273.976 942.589C-263.811 992.257 -248.527 1028.2 -248.371 1028.56L-249.488 1029.11Z" fill="url(#paint41_linear)"/>
<path d="M-257.654 1027.06C-257.834 1026.7 -275.785 990.697 -288.716 940.433C-296.313 910.906 -300.723 882.304 -301.819 855.416C-303.19 821.788 -299.356 790.766 -290.422 763.215C-279.094 728.281 -262.649 697.995 -240.149 670.623C-220.046 646.17 -196.896 626.043 -174.506 606.581C-135.393 572.578 -94.9459 537.416 -66.2563 476.631C-33.3368 406.876 -39.3749 350.687 -45.7731 291.198C-49.6227 255.388 -53.6031 218.356 -48.9886 176.977C-43.7768 130.245 -27.9859 84.095 -0.715851 35.8948C24.3614 -8.42987 55.6159 -46.0923 94.8314 -79.2487C129.714 -108.741 167.273 -131.819 203.6 -154.138C277.605 -199.608 347.502 -242.553 398.68 -335.694C455.515 -439.141 439.932 -568.438 416.851 -658.687C391.823 -756.543 352.837 -830.867 352.444 -831.603L353.512 -832.26C353.904 -831.52 392.96 -757.076 418.029 -659.067C432.757 -601.488 439.85 -547.159 439.11 -497.588C438.185 -435.583 424.939 -380.888 399.735 -335.02C387.389 -312.552 373.647 -292.402 357.725 -273.421C343.526 -256.49 327.886 -240.873 309.923 -225.675C276.541 -197.43 239.768 -174.837 204.206 -152.987C131.392 -108.247 56.0987 -61.9828 0.331421 36.5825C-60.3695 143.877 -52.3268 218.691 -44.5499 291.044C-38.1354 350.739 -32.0727 407.122 -65.16 477.231C-93.9682 538.271 -134.517 573.522 -173.733 607.613C-220.23 648.035 -264.15 686.213 -289.26 763.655C-309.383 825.713 -299.426 893.852 -287.53 940.084C-274.635 990.202 -256.75 1026.08 -256.57 1026.43L-257.654 1027.06Z" fill="url(#paint42_linear)"/>
<path d="M-265.815 1025.01C-266.019 1024.65 -286.584 988.708 -302.261 937.994C-311.469 908.202 -317.217 879.208 -319.34 851.818C-321.999 817.56 -318.968 785.727 -310.332 757.204C-299.127 720.203 -282.854 688.331 -260.583 659.764C-240.693 634.253 -217.82 613.503 -195.701 593.442C-158.339 559.549 -119.708 524.505 -92.0125 464.409C-58.5406 391.779 -65.6711 335.166 -73.2147 275.229C-77.6574 239.943 -82.2515 203.458 -78.447 162.422C-74.1515 116.101 -59.4202 69.9858 -33.4061 21.4462C20.913 -79.9188 94.7212 -128.261 166.099 -175.01C236.561 -221.16 303.116 -264.748 349.932 -355.156C403.462 -458.523 385.012 -585.416 360.107 -673.665C333.107 -769.333 292.926 -841.444 292.521 -842.163L293.572 -842.846C293.977 -842.128 334.236 -769.875 361.281 -674.049C377.17 -617.753 385.454 -564.451 385.912 -515.625C386.485 -454.554 374.74 -400.346 351.004 -354.513C339.705 -332.692 326.999 -313.032 312.153 -294.408C298.906 -277.781 284.228 -262.349 267.28 -247.222C235.771 -219.096 202.238 -197.134 166.729 -173.877C95.4903 -127.215 21.8212 -78.9664 -32.3465 22.1077C-90.2452 130.143 -80.9711 203.81 -71.9997 275.052C-64.4275 335.197 -57.2765 392.004 -90.912 464.997C-118.722 525.339 -157.451 560.471 -194.907 594.451C-240.885 636.158 -284.314 675.552 -309.162 757.615C-328.606 821.833 -315.511 890.905 -301.103 937.545C-285.476 988.121 -264.976 1023.95 -264.772 1024.31L-265.815 1025.01Z" fill="url(#paint43_linear)"/>
<path d="M-273.98 1022.95C-274.214 1022.6 -297.454 986.703 -315.896 935.526C-326.733 905.46 -333.818 876.073 -336.964 848.182C-340.9 813.292 -338.637 780.661 -330.243 751.191C-319.234 712.016 -303.177 678.485 -281.164 648.688C-261.507 622.083 -238.909 600.703 -217.051 580.025C-181.411 546.309 -144.56 511.442 -117.769 452.183C-83.9166 376.633 -92.1312 319.69 -100.833 259.401C-105.848 224.626 -111.036 188.665 -108.016 147.952C-104.609 102.005 -90.8958 55.8987 -66.1008 6.99316C-13.4466 -96.8586 58.6311 -147.206 128.336 -195.9C195.32 -242.694 258.595 -286.89 301.189 -374.618C351.34 -477.914 330.038 -602.379 303.337 -688.599C274.381 -782.089 233.018 -852.021 232.601 -852.718L233.632 -853.432C234.045 -852.736 275.486 -782.684 304.49 -689.043C321.529 -634.031 331.012 -581.761 332.669 -533.676C334.743 -473.531 324.52 -419.811 302.277 -374C282.805 -333.896 258.083 -300.448 224.484 -268.746C194.809 -240.754 162.843 -218.427 129.003 -194.789C59.4247 -146.188 -12.518 -95.9326 -65.0248 7.62811C-120.211 116.471 -109.743 189.027 -99.6176 259.198C-90.8876 319.695 -82.6444 376.842 -116.665 452.76C-143.562 512.261 -180.511 547.213 -216.241 581.018C-261.7 624.024 -304.642 664.649 -329.069 751.57C-347.965 817.935 -331.711 887.974 -314.751 935.041C-296.358 986.071 -273.207 1021.83 -272.974 1022.19L-273.98 1022.95Z" fill="url(#paint44_linear)"/>
<path d="M-282.142 1020.89C-282.4 1020.53 -308.209 984.727 -329.371 933.105C-341.804 902.78 -350.227 873.005 -354.412 844.606C-359.644 809.081 -358.212 775.63 -350.157 745.172C-339.259 703.956 -323.411 668.877 -301.709 637.934C-282.338 610.32 -260.12 588.371 -238.635 567.151C-204.578 533.509 -169.364 498.722 -143.53 439.961C-109.031 361.488 -118.415 304.179 -128.348 243.506C-139.709 174.16 -151.45 102.454 -98.7953 -7.45538C-47.8716 -113.767 22.3692 -166.134 90.2987 -216.777C153.88 -264.18 213.934 -308.954 252.442 -394.08C299.156 -497.341 274.991 -619.398 246.494 -703.607C215.599 -794.902 173.103 -862.603 172.677 -863.278L173.692 -864.023C174.117 -863.348 216.7 -795.506 247.647 -704.061C265.827 -650.337 276.5 -599.093 279.364 -551.753C282.948 -492.539 274.263 -439.295 253.546 -393.503C214.896 -308.063 154.714 -263.196 90.9943 -215.692C23.1916 -165.137 -46.9185 -112.868 -97.7071 -6.85138C-150.169 102.662 -138.465 174.146 -127.145 243.276C-117.176 304.166 -107.759 361.674 -142.425 440.531C-168.361 499.524 -203.666 534.4 -237.809 568.13C-280.571 610.373 -324.794 654.054 -348.979 745.538C-367.11 814.112 -347.715 885.099 -328.25 932.572C-307.15 984.044 -281.434 1019.72 -281.176 1020.07L-282.142 1020.89Z" fill="url(#paint45_linear)"/>
</g>
<defs>
<linearGradient id="paint0_linear" x1="0.000327499" y1="0.000266125" x2="734.739" y2="468.076" gradientUnits="userSpaceOnUse">
<stop stop-color="#CBD5E1"/>
<stop offset="1" stop-color="#CBD5E1"/>
</linearGradient>
<linearGradient id="paint1_linear" x1="0.000310585" y1="0.000243937" x2="734.739" y2="468.076" gradientUnits="userSpaceOnUse">
<stop stop-color="#CBD5E1"/>
<stop offset="1" stop-color="#CBD5E1"/>
</linearGradient>
<linearGradient id="paint2_linear" x1="0.000313591" y1="0.000424495" x2="734.739" y2="468.076" gradientUnits="userSpaceOnUse">
<stop stop-color="#CBD5E1"/>
<stop offset="1" stop-color="#CBD5E1"/>
</linearGradient>
<linearGradient id="paint3_linear" x1="0.000314971" y1="0.000108686" x2="734.739" y2="468.076" gradientUnits="userSpaceOnUse">
<stop stop-color="#CBD5E1"/>
<stop offset="1" stop-color="#CBD5E1"/>
</linearGradient>
<linearGradient id="paint4_linear" x1="0.000301981" y1="0.000123969" x2="734.739" y2="468.076" gradientUnits="userSpaceOnUse">
<stop stop-color="#CBD5E1"/>
<stop offset="1" stop-color="#CBD5E1"/>
</linearGradient>
<linearGradient id="paint5_linear" x1="0.000321581" y1="0.000361039" x2="734.739" y2="468.076" gradientUnits="userSpaceOnUse">
<stop stop-color="#CBD5E1"/>
<stop offset="1" stop-color="#CBD5E1"/>
</linearGradient>
<linearGradient id="paint6_linear" x1="0.000293693" y1="0.000404352" x2="734.739" y2="468.076" gradientUnits="userSpaceOnUse">
<stop stop-color="#CBD5E1"/>
<stop offset="1" stop-color="#CBD5E1"/>
</linearGradient>
<linearGradient id="paint7_linear" x1="0.000295366" y1="0.000270227" x2="734.739" y2="468.076" gradientUnits="userSpaceOnUse">
<stop stop-color="#CBD5E1"/>
<stop offset="1" stop-color="#CBD5E1"/>
</linearGradient>
<linearGradient id="paint8_linear" x1="0.000288493" y1="0.000161759" x2="734.739" y2="468.076" gradientUnits="userSpaceOnUse">
<stop stop-color="#CBD5E1"/>
<stop offset="1" stop-color="#CBD5E1"/>
</linearGradient>
<linearGradient id="paint9_linear" x1="0.000308034" y1="0.000337429" x2="734.739" y2="468.076" gradientUnits="userSpaceOnUse">
<stop stop-color="#CBD5E1"/>
<stop offset="1" stop-color="#CBD5E1"/>
</linearGradient>
<linearGradient id="paint10_linear" x1="0.000352156" y1="0.000481214" x2="734.739" y2="468.076" gradientUnits="userSpaceOnUse">
<stop stop-color="#CBD5E1"/>
<stop offset="1" stop-color="#CBD5E1"/>
</linearGradient>
<linearGradient id="paint11_linear" x1="0.000323561" y1="0.000162479" x2="734.739" y2="468.076" gradientUnits="userSpaceOnUse">
<stop stop-color="#CBD5E1"/>
<stop offset="1" stop-color="#CBD5E1"/>
</linearGradient>
<linearGradient id="paint12_linear" x1="0.000313635" y1="0.000238553" x2="734.739" y2="468.076" gradientUnits="userSpaceOnUse">
<stop stop-color="#CBD5E1"/>
<stop offset="1" stop-color="#CBD5E1"/>
</linearGradient>
<linearGradient id="paint13_linear" x1="0.000366932" y1="0.000130319" x2="734.739" y2="468.076" gradientUnits="userSpaceOnUse">
<stop stop-color="#CBD5E1"/>
<stop offset="1" stop-color="#CBD5E1"/>
</linearGradient>
<linearGradient id="paint14_linear" x1="0.000315477" y1="0.000272874" x2="734.739" y2="468.076" gradientUnits="userSpaceOnUse">
<stop stop-color="#CBD5E1"/>
<stop offset="1" stop-color="#CBD5E1"/>
</linearGradient>
<linearGradient id="paint15_linear" x1="0.000320165" y1="0.000239028" x2="734.739" y2="468.076" gradientUnits="userSpaceOnUse">
<stop stop-color="#CBD5E1"/>
<stop offset="1" stop-color="#CBD5E1"/>
</linearGradient>
<linearGradient id="paint16_linear" x1="0.000304678" y1="0.000267688" x2="734.739" y2="468.076" gradientUnits="userSpaceOnUse">
<stop stop-color="#CBD5E1"/>
<stop offset="1" stop-color="#CBD5E1"/>
</linearGradient>
<linearGradient id="paint17_linear" x1="0.000334225" y1="0.000385823" x2="734.739" y2="468.076" gradientUnits="userSpaceOnUse">
<stop stop-color="#CBD5E1"/>
<stop offset="1" stop-color="#CBD5E1"/>
</linearGradient>
<linearGradient id="paint18_linear" x1="0.000326666" y1="0.000426149" x2="734.739" y2="468.076" gradientUnits="userSpaceOnUse">
<stop stop-color="#CBD5E1"/>
<stop offset="1" stop-color="#CBD5E1"/>
</linearGradient>
<linearGradient id="paint19_linear" x1="0.000323683" y1="0.000343958" x2="734.739" y2="468.076" gradientUnits="userSpaceOnUse">
<stop stop-color="#CBD5E1"/>
<stop offset="1" stop-color="#CBD5E1"/>
</linearGradient>
<linearGradient id="paint20_linear" x1="0.000295351" y1="0.00041662" x2="734.739" y2="468.076" gradientUnits="userSpaceOnUse">
<stop stop-color="#CBD5E1"/>
<stop offset="1" stop-color="#CBD5E1"/>
</linearGradient>
<linearGradient id="paint21_linear" x1="0.000296157" y1="0.00034097" x2="734.739" y2="468.076" gradientUnits="userSpaceOnUse">
<stop stop-color="#CBD5E1"/>
<stop offset="1" stop-color="#CBD5E1"/>
</linearGradient>
<linearGradient id="paint22_linear" x1="0.000321518" y1="0.000377566" x2="734.739" y2="468.076" gradientUnits="userSpaceOnUse">
<stop stop-color="#CBD5E1"/>
<stop offset="1" stop-color="#CBD5E1"/>
</linearGradient>
<linearGradient id="paint23_linear" x1="0.000290113" y1="0.000415612" x2="734.739" y2="468.076" gradientUnits="userSpaceOnUse">
<stop stop-color="#CBD5E1"/>
<stop offset="1" stop-color="#CBD5E1"/>
</linearGradient>
<linearGradient id="paint24_linear" x1="0.000329894" y1="0.000414776" x2="734.739" y2="468.076" gradientUnits="userSpaceOnUse">
<stop stop-color="#CBD5E1"/>
<stop offset="1" stop-color="#CBD5E1"/>
</linearGradient>
<linearGradient id="paint25_linear" x1="0.000301447" y1="0.000405039" x2="734.739" y2="468.076" gradientUnits="userSpaceOnUse">
<stop stop-color="#CBD5E1"/>
<stop offset="1" stop-color="#CBD5E1"/>
</linearGradient>
<linearGradient id="paint26_linear" x1="0.000297929" y1="0.000432657" x2="734.739" y2="468.076" gradientUnits="userSpaceOnUse">
<stop stop-color="#CBD5E1"/>
<stop offset="1" stop-color="#CBD5E1"/>
</linearGradient>
<linearGradient id="paint27_linear" x1="0.000335668" y1="0.000262874" x2="734.739" y2="468.076" gradientUnits="userSpaceOnUse">
<stop stop-color="#CBD5E1"/>
<stop offset="1" stop-color="#CBD5E1"/>
</linearGradient>
<linearGradient id="paint28_linear" x1="0.000297756" y1="0.000222512" x2="734.739" y2="468.076" gradientUnits="userSpaceOnUse">
<stop stop-color="#CBD5E1"/>
<stop offset="1" stop-color="#CBD5E1"/>
</linearGradient>
<linearGradient id="paint29_linear" x1="0.000298753" y1="0.000309253" x2="734.739" y2="468.076" gradientUnits="userSpaceOnUse">
<stop stop-color="#CBD5E1"/>
<stop offset="1" stop-color="#CBD5E1"/>
</linearGradient>
<linearGradient id="paint30_linear" x1="0.000288533" y1="0.000341396" x2="734.739" y2="468.076" gradientUnits="userSpaceOnUse">
<stop stop-color="#CBD5E1"/>
<stop offset="1" stop-color="#CBD5E1"/>
</linearGradient>
<linearGradient id="paint31_linear" x1="0.000299034" y1="0.000376269" x2="734.739" y2="468.076" gradientUnits="userSpaceOnUse">
<stop stop-color="#CBD5E1"/>
<stop offset="1" stop-color="#CBD5E1"/>
</linearGradient>
<linearGradient id="paint32_linear" x1="0.000294303" y1="0.000267105" x2="734.739" y2="468.076" gradientUnits="userSpaceOnUse">
<stop stop-color="#CBD5E1"/>
<stop offset="1" stop-color="#CBD5E1"/>
</linearGradient>
<linearGradient id="paint33_linear" x1="0.000339265" y1="0.000273706" x2="734.739" y2="468.076" gradientUnits="userSpaceOnUse">
<stop stop-color="#CBD5E1"/>
<stop offset="1" stop-color="#CBD5E1"/>
</linearGradient>
<linearGradient id="paint34_linear" x1="0.000326466" y1="0.000357711" x2="734.739" y2="468.076" gradientUnits="userSpaceOnUse">
<stop stop-color="#CBD5E1"/>
<stop offset="1" stop-color="#CBD5E1"/>
</linearGradient>
<linearGradient id="paint35_linear" x1="0.000317792" y1="0.000416612" x2="734.739" y2="468.076" gradientUnits="userSpaceOnUse">
<stop stop-color="#CBD5E1"/>
<stop offset="1" stop-color="#CBD5E1"/>
</linearGradient>
<linearGradient id="paint36_linear" x1="0.000352137" y1="0.000539067" x2="734.739" y2="468.076" gradientUnits="userSpaceOnUse">
<stop stop-color="#CBD5E1"/>
<stop offset="1" stop-color="#CBD5E1"/>
</linearGradient>
<linearGradient id="paint37_linear" x1="0.000331232" y1="0.000247705" x2="734.739" y2="468.076" gradientUnits="userSpaceOnUse">
<stop stop-color="#CBD5E1"/>
<stop offset="1" stop-color="#CBD5E1"/>
</linearGradient>
<linearGradient id="paint38_linear" x1="0.000283699" y1="0.000437526" x2="734.739" y2="468.076" gradientUnits="userSpaceOnUse">
<stop stop-color="#CBD5E1"/>
<stop offset="1" stop-color="#CBD5E1"/>
</linearGradient>
<linearGradient id="paint39_linear" x1="0.00035814" y1="0.00025656" x2="734.739" y2="468.076" gradientUnits="userSpaceOnUse">
<stop stop-color="#CBD5E1"/>
<stop offset="1" stop-color="#CBD5E1"/>
</linearGradient>
<linearGradient id="paint40_linear" x1="0.00032655" y1="0.000409071" x2="734.739" y2="468.076" gradientUnits="userSpaceOnUse">
<stop stop-color="#CBD5E1"/>
<stop offset="1" stop-color="#CBD5E1"/>
</linearGradient>
<linearGradient id="paint41_linear" x1="0.000310442" y1="0.000249124" x2="734.739" y2="468.076" gradientUnits="userSpaceOnUse">
<stop stop-color="#CBD5E1"/>
<stop offset="1" stop-color="#CBD5E1"/>
</linearGradient>
<linearGradient id="paint42_linear" x1="0.000280143" y1="0.000318933" x2="734.739" y2="468.076" gradientUnits="userSpaceOnUse">
<stop stop-color="#CBD5E1"/>
<stop offset="1" stop-color="#CBD5E1"/>
</linearGradient>
<linearGradient id="paint43_linear" x1="0.000348879" y1="0.000522906" x2="734.739" y2="468.076" gradientUnits="userSpaceOnUse">
<stop stop-color="#CBD5E1"/>
<stop offset="1" stop-color="#CBD5E1"/>
</linearGradient>
<linearGradient id="paint44_linear" x1="0.000383305" y1="0.000445773" x2="734.739" y2="468.076" gradientUnits="userSpaceOnUse">
<stop stop-color="#CBD5E1"/>
<stop offset="1" stop-color="#CBD5E1"/>
</linearGradient>
<linearGradient id="paint45_linear" x1="0.000342367" y1="0.000287136" x2="734.739" y2="468.076" gradientUnits="userSpaceOnUse">
<stop stop-color="#CBD5E1"/>
<stop offset="1" stop-color="#CBD5E1"/>
</linearGradient>
<clipPath id="clip0">
<rect width="1440" height="970" fill="white"/>
</clipPath>
</defs>
</svg>
