<svg width="64" height="54" viewBox="0 0 64 54" fill="none" xmlns="http://www.w3.org/2000/svg">
<path d="M5.5 22.7929H11.585C12.463 22.7929 13.277 22.3042 13.729 21.5059L17.544 14.7646C18.448 13.1681 20.075 12.1907 21.831 12.1907H42.169C43.925 12.1907 45.553 13.167 46.456 14.7646L50.271 21.5059C50.723 22.3042 51.537 22.7929 52.415 22.7929H58.5V35.5143H52.415C51.537 35.5143 50.723 36.003 50.271 36.8012L46.456 43.5425C45.552 45.139 43.925 46.1165 42.169 46.1165H21.831C20.075 46.1165 18.447 45.1401 17.544 43.5425L13.729 36.8012C13.277 36.003 12.463 35.5143 11.585 35.5143H5.5" fill="#F3632B"/>
<path d="M42.169 46.6458H21.831C19.911 46.6458 18.103 45.5612 17.115 43.8152L13.3 37.0737C12.94 36.4397 12.283 36.0443 11.584 36.0443H5.5C5.224 36.0443 5 35.8079 5 35.5142C5 35.2205 5.224 34.9841 5.5 34.9841H11.584C12.632 34.9841 13.618 35.5757 14.156 36.5277L17.971 43.2692C18.781 44.6983 20.26 45.5856 21.831 45.5856H42.169C43.74 45.5856 45.219 44.6983 46.027 43.2692L49.842 36.5277C50.382 35.5768 51.368 34.9841 52.415 34.9841H58.5C58.776 34.9841 59 35.2216 59 35.5142C59 35.8068 58.776 36.0443 58.5 36.0443H52.415C51.717 36.0443 51.06 36.4387 50.7 37.0737L46.885 43.8152C45.896 45.5612 44.09 46.6458 42.169 46.6458Z" fill="#263238"/>
<path d="M58.5 23.3228H52.415C51.368 23.3228 50.383 22.7312 49.843 21.7782L46.028 15.0368C45.219 13.6088 43.74 12.7215 42.169 12.7215H21.831C20.26 12.7215 18.781 13.6088 17.972 15.0379L14.157 21.7792C13.618 22.7312 12.632 23.3228 11.584 23.3228H5.5C5.224 23.3228 5 23.0863 5 22.7927C5 22.499 5.224 22.2626 5.5 22.2626H11.584C12.282 22.2626 12.939 21.8683 13.299 21.2332L17.114 14.4919C18.103 12.7459 19.91 11.6614 21.831 11.6614H42.169C44.09 11.6614 45.897 12.7459 46.885 14.4919L50.7 21.2332C51.06 21.8683 51.717 22.2626 52.415 22.2626H58.5C58.776 22.2626 59 22.5001 59 22.7927C59 23.0853 58.776 23.3228 58.5 23.3228Z" fill="#263238"/>
<path d="M2.5 40.2849H1.5C0.673 40.2849 0 39.5725 0 38.6947V19.6124C0 18.7357 0.673 18.0222 1.5 18.0222H2.5C3.327 18.0222 4 18.7357 4 19.6124V38.6947C4 39.5725 3.327 40.2849 2.5 40.2849ZM1.5 19.0823C1.224 19.0823 1 19.3209 1 19.6124V38.6947C1 38.9873 1.224 39.2248 1.5 39.2248H2.5C2.776 39.2248 3 38.9873 3 38.6947V19.6124C3 19.3209 2.776 19.0823 2.5 19.0823H1.5Z" fill="#263238"/>
<path d="M62.5 40.2849H61.5C60.673 40.2849 60 39.5714 60 38.6947V19.6124C60 18.7357 60.673 18.0222 61.5 18.0222H62.5C63.327 18.0222 64 18.7357 64 19.6124V38.6947C64 39.5725 63.327 40.2849 62.5 40.2849ZM61.5 19.0823C61.225 19.0823 61 19.3198 61 19.6124V38.6947C61 38.9873 61.225 39.2248 61.5 39.2248H62.5C62.775 39.2248 63 38.9873 63 38.6947V19.6124C63 19.3198 62.775 19.0823 62.5 19.0823H61.5Z" fill="#263238"/>
<path d="M34.5 18.0222H29.5C29.224 18.0222 29 17.7847 29 17.4921V12.1914C29 11.8988 29.224 11.6614 29.5 11.6614H34.5C34.776 11.6614 35 11.8988 35 12.1914V17.4921C35 17.7858 34.776 18.0222 34.5 18.0222ZM30 16.9621H34V12.7215H30V16.9621Z" fill="#263238"/>
<path d="M22 40.2849C21.724 40.2849 21.5 40.0474 21.5 39.7548V18.5523C21.5 18.2597 21.724 18.0222 22 18.0222C22.276 18.0222 22.5 18.2597 22.5 18.5523V39.7548C22.5 40.0485 22.276 40.2849 22 40.2849Z" fill="#263238"/>
<path d="M42 40.2849C41.724 40.2849 41.5 40.0474 41.5 39.7548V18.5523C41.5 18.2597 41.724 18.0222 42 18.0222C42.276 18.0222 42.5 18.2597 42.5 18.5523V39.7548C42.5 40.0485 42.276 40.2849 42 40.2849Z" fill="#263238"/>
<path d="M32 38.1646C31.724 38.1646 31.5 37.9271 31.5 37.6345V20.6724C31.5 20.3798 31.724 20.1423 32 20.1423C32.276 20.1423 32.5 20.3798 32.5 20.6724V37.6345C32.5 37.9281 32.276 38.1646 32 38.1646Z" fill="#263238"/>
<path d="M18 53.0063H17C16.724 53.0063 16.5 52.7689 16.5 52.4763C16.5 52.1837 16.724 51.9463 17 51.9463H18C18.276 51.9463 18.5 52.1837 18.5 52.4763C18.5 52.7689 18.276 53.0063 18 53.0063Z" fill="#263238"/>
<path d="M37 53.0063H20C19.724 53.0063 19.5 52.7689 19.5 52.4763C19.5 52.1837 19.724 51.9463 20 51.9463H37C37.276 51.9463 37.5 52.1837 37.5 52.4763C37.5 52.7689 37.276 53.0063 37 53.0063Z" fill="#263238"/>
<path d="M52 6.36084H51C50.724 6.36084 50.5 6.12339 50.5 5.83081C50.5 5.53823 50.724 5.30078 51 5.30078H52C52.276 5.30078 52.5 5.53823 52.5 5.83081C52.5 6.12339 52.276 6.36084 52 6.36084Z" fill="#263238"/>
<path d="M49 6.36084H32C31.724 6.36084 31.5 6.12339 31.5 5.83081C31.5 5.53823 31.724 5.30078 32 5.30078H49C49.276 5.30078 49.5 5.53823 49.5 5.83081C49.5 6.12339 49.276 6.36084 49 6.36084Z" fill="#263238"/>
<path d="M15 5.30078C14.724 5.30078 14.5 5.06331 14.5 4.7707V0.530078C14.5 0.237475 14.724 0 15 0C15.276 0 15.5 0.237475 15.5 0.530078V4.7707C15.5 5.06437 15.276 5.30078 15 5.30078Z" fill="#263238"/>
<path d="M17 3.18042H13C12.724 3.18042 12.5 2.94297 12.5 2.65039C12.5 2.35781 12.724 2.12036 13 2.12036H17C17.276 2.12036 17.5 2.35781 17.5 2.65039C17.5 2.94297 17.276 3.18042 17 3.18042Z" fill="#263238"/>
<path d="M8 12.7214C7.724 12.7214 7.5 12.484 7.5 12.1914V7.95095C7.5 7.65836 7.724 7.4209 8 7.4209C8.276 7.4209 8.5 7.65836 8.5 7.95095V12.1914C8.5 12.485 8.276 12.7214 8 12.7214Z" fill="#263238"/>
<path d="M10 10.6013H6C5.724 10.6013 5.5 10.3639 5.5 10.0713C5.5 9.77871 5.724 9.54126 6 9.54126H10C10.276 9.54126 10.5 9.77871 10.5 10.0713C10.5 10.3639 10.276 10.6013 10 10.6013Z" fill="#263238"/>
</svg>
