<svg width="62" height="67" viewBox="0 0 62 67" fill="none" xmlns="http://www.w3.org/2000/svg">
<path d="M29.8633 60.427H21.8633C21.5873 60.427 21.3633 60.1895 21.3633 59.8969C21.3633 59.6042 21.5873 59.3667 21.8633 59.3667H29.8633C30.1393 59.3667 30.3633 59.6042 30.3633 59.8969C30.3633 60.1895 30.1393 60.427 29.8633 60.427Z" fill="#263238"/>
<path d="M41.3633 60.427H33.8633C33.5873 60.427 33.3633 60.1895 33.3633 59.8969C33.3633 59.6043 33.5873 59.3669 33.8633 59.3669H41.3633C42.4663 59.3669 43.3633 58.4159 43.3633 57.2466V5.30049C43.3633 4.13117 42.4663 3.18024 41.3633 3.18024H10.3633C9.26028 3.18024 8.36328 4.13117 8.36328 5.30049V57.2466C8.36328 58.4159 9.26028 59.3669 10.3633 59.3669H17.8633C18.1393 59.3669 18.3633 59.6043 18.3633 59.8969C18.3633 60.1895 18.1393 60.427 17.8633 60.427H10.3633C8.70928 60.427 7.36328 59.0001 7.36328 57.2466V5.30049C7.36328 3.54705 8.70928 2.12012 10.3633 2.12012H41.3633C43.0173 2.12012 44.3633 3.54705 44.3633 5.30049V57.2466C44.3633 59.0001 43.0173 60.427 41.3633 60.427Z" fill="#263238"/>
<path d="M38.8633 20.6721H12.8633C12.3113 20.6721 11.8633 20.1972 11.8633 19.612V7.95074C11.8633 7.36556 12.3113 6.89062 12.8633 6.89062H38.8633C39.4153 6.89062 39.8633 7.36556 39.8633 7.95074V19.612C39.8633 20.1972 39.4153 20.6721 38.8633 20.6721Z" fill="#F3632B"/>
<path d="M38.8633 21.2021H12.8633C12.0363 21.2021 11.3633 20.4887 11.3633 19.612V7.95054C11.3633 7.07382 12.0363 6.36035 12.8633 6.36035H38.8633C39.6903 6.36035 40.3633 7.07382 40.3633 7.95054V19.612C40.3633 20.4887 39.6903 21.2021 38.8633 21.2021ZM12.8633 7.42048C12.5873 7.42048 12.3633 7.65901 12.3633 7.95054V19.612C12.3633 19.9035 12.5873 20.142 12.8633 20.142H38.8633C39.1383 20.142 39.3633 19.9035 39.3633 19.612V7.95054C39.3633 7.65901 39.1383 7.42048 38.8633 7.42048H12.8633Z" fill="#263238"/>
<path d="M25.8633 46.6453C20.6253 46.6453 16.3633 42.127 16.3633 36.5741C16.3633 31.0212 20.6253 26.5029 25.8633 26.5029C31.1013 26.5029 35.3633 31.0212 35.3633 36.5741C35.3633 42.127 31.1013 46.6453 25.8633 46.6453ZM25.8633 27.5631C21.1763 27.5631 17.3633 31.6053 17.3633 36.5741C17.3633 41.5429 21.1763 45.5851 25.8633 45.5851C30.5503 45.5851 34.3633 41.5429 34.3633 36.5741C34.3633 31.6053 30.5503 27.5631 25.8633 27.5631Z" fill="#263238"/>
<path d="M23.0342 42.6614C22.6502 42.6614 22.2662 42.5066 21.9732 42.197L20.5582 40.698C19.9742 40.0778 19.9742 39.0686 20.5582 38.4484L27.6302 30.9533C28.2152 30.3342 29.1662 30.3342 29.7512 30.9533L31.1662 32.4524C31.7502 33.0725 31.7502 34.0807 31.1662 34.7009L24.0952 42.197C23.8022 42.5066 23.4192 42.6614 23.0342 42.6614ZM28.6912 31.547C28.5632 31.547 28.4352 31.599 28.3372 31.7018L21.2662 39.1969C21.0712 39.4036 21.0712 39.7407 21.2662 39.9475L22.6802 41.4465C22.8752 41.6532 23.1922 41.6532 23.3872 41.4465L30.4582 33.9503C30.6532 33.7436 30.6532 33.4075 30.4582 33.2008L29.0442 31.7018C28.9472 31.599 28.8192 31.547 28.6912 31.547ZM30.8132 34.3256H30.8232H30.8132Z" fill="#263238"/>
<path d="M16.8633 18.022C16.5873 18.022 16.3633 17.7845 16.3633 17.4919V11.1311C16.3633 10.8385 16.5873 10.6011 16.8633 10.6011C17.1393 10.6011 17.3633 10.8385 17.3633 11.1311V17.4919C17.3633 17.7845 17.1393 18.022 16.8633 18.022Z" fill="#263238"/>
<path d="M19.8633 18.022C19.5873 18.022 19.3633 17.7845 19.3633 17.4919V13.2513C19.3633 12.9587 19.5873 12.7212 19.8633 12.7212C20.1393 12.7212 20.3633 12.9587 20.3633 13.2513V17.4919C20.3633 17.7845 20.1393 18.022 19.8633 18.022Z" fill="#263238"/>
<path d="M23.3633 18.022C23.0873 18.022 22.8633 17.7845 22.8633 17.4919V13.2513C22.8633 12.9587 23.0873 12.7212 23.3633 12.7212C23.6393 12.7212 23.8633 12.9587 23.8633 13.2513V17.4919C23.8633 17.7845 23.6393 18.022 23.3633 18.022Z" fill="#263238"/>
<path d="M36.9043 12.7212H28.9043C28.6283 12.7212 28.4043 12.4837 28.4043 12.1912V10.071C28.4043 9.77847 28.6283 9.54102 28.9043 9.54102H36.9043C37.1803 9.54102 37.4043 9.77847 37.4043 10.071V12.1912C37.4043 12.4837 37.1803 12.7212 36.9043 12.7212ZM29.4053 11.6611H36.4053V10.6011H29.4053V11.6611Z" fill="#263238"/>
<path d="M36.9043 18.022H28.9043C28.6283 18.022 28.4043 17.7845 28.4043 17.4919V15.3718C28.4043 15.0792 28.6283 14.8418 28.9043 14.8418H36.9043C37.1803 14.8418 37.4043 15.0792 37.4043 15.3718V17.4919C37.4043 17.7845 37.1803 18.022 36.9043 18.022ZM29.4053 16.9619H36.4053V15.9019H29.4053V16.9619Z" fill="#263238"/>
<path d="M25.8633 25.4429C25.5873 25.4429 25.3633 25.2054 25.3633 24.9128V23.8528C25.3633 23.5602 25.5873 23.3228 25.8633 23.3228C26.1393 23.3228 26.3633 23.5602 26.3633 23.8528V24.9128C26.3633 25.2054 26.1393 25.4429 25.8633 25.4429Z" fill="#263238"/>
<path d="M25.8633 49.8257C25.5873 49.8257 25.3633 49.5882 25.3633 49.2957V48.2356C25.3633 47.943 25.5873 47.7056 25.8633 47.7056C26.1393 47.7056 26.3633 47.943 26.3633 48.2356V49.2957C26.3633 49.5882 26.1393 49.8257 25.8633 49.8257Z" fill="#263238"/>
<path d="M37.8633 37.104H36.8633C36.5873 37.104 36.3633 36.8666 36.3633 36.574C36.3633 36.2814 36.5873 36.0439 36.8633 36.0439H37.8633C38.1393 36.0439 38.3633 36.2814 38.3633 36.574C38.3633 36.8666 38.1393 37.104 37.8633 37.104Z" fill="#263238"/>
<path d="M14.8633 37.104H13.8633C13.5873 37.104 13.3633 36.8666 13.3633 36.574C13.3633 36.2814 13.5873 36.0439 13.8633 36.0439H14.8633C15.1393 36.0439 15.3633 36.2814 15.3633 36.574C15.3633 36.8666 15.1393 37.104 14.8633 37.104Z" fill="#263238"/>
<path d="M34.3483 46.0994C34.2203 46.0994 34.0923 46.0474 33.9943 45.9446L33.2872 45.1951C33.0922 44.9884 33.0922 44.6523 33.2872 44.4456C33.4822 44.2388 33.7993 44.2388 33.9943 44.4456L34.7013 45.1951C34.8963 45.4018 34.8963 45.7379 34.7013 45.9446C34.6043 46.0485 34.4763 46.0994 34.3483 46.0994Z" fill="#263238"/>
<path d="M18.0852 28.8584C17.9573 28.8584 17.8293 28.8065 17.7313 28.7036L17.0243 27.9542C16.8293 27.7475 16.8293 27.4115 17.0243 27.2048C17.2193 26.9981 17.5363 26.9981 17.7313 27.2048L18.4382 27.9542C18.6332 28.1609 18.6332 28.4969 18.4382 28.7036C18.3412 28.8065 18.2132 28.8584 18.0852 28.8584Z" fill="#263238"/>
<path d="M17.3783 46.0994C17.2503 46.0994 17.1223 46.0474 17.0243 45.9446C16.8293 45.7379 16.8293 45.4018 17.0243 45.1951L17.7313 44.4456C17.9263 44.2388 18.2432 44.2388 18.4382 44.4456C18.6332 44.6523 18.6332 44.9884 18.4382 45.1951L17.7313 45.9446C17.6343 46.0485 17.5063 46.0994 17.3783 46.0994Z" fill="#263238"/>
<path d="M33.6413 28.8584C33.5133 28.8584 33.3852 28.8065 33.2872 28.7036C33.0922 28.4969 33.0922 28.1609 33.2872 27.9542L33.9943 27.2048C34.1893 26.9981 34.5063 26.9981 34.7013 27.2048C34.8963 27.4115 34.8963 27.7475 34.7013 27.9542L33.9943 28.7036C33.8973 28.8065 33.7693 28.8584 33.6413 28.8584Z" fill="#263238"/>
<path d="M19.8633 56.7163C18.4853 56.7163 17.3633 55.5279 17.3633 54.066C17.3633 52.6042 18.4853 51.4158 19.8633 51.4158C21.2413 51.4158 22.3633 52.6042 22.3633 54.066C22.3633 55.5279 21.2413 56.7163 19.8633 56.7163ZM19.8633 52.4759C19.0363 52.4759 18.3633 53.1893 18.3633 54.066C18.3633 54.9427 19.0363 55.6562 19.8633 55.6562C20.6903 55.6562 21.3633 54.9427 21.3633 54.066C21.3633 53.1893 20.6903 52.4759 19.8633 52.4759Z" fill="#263238"/>
<path d="M31.8633 56.7163C30.4853 56.7163 29.3633 55.5279 29.3633 54.066C29.3633 52.6042 30.4853 51.4158 31.8633 51.4158C33.2423 51.4158 34.3633 52.6042 34.3633 54.066C34.3633 55.5279 33.2423 56.7163 31.8633 56.7163ZM31.8633 52.4759C31.0363 52.4759 30.3633 53.1893 30.3633 54.066C30.3633 54.9427 31.0363 55.6562 31.8633 55.6562C32.6903 55.6562 33.3633 54.9427 33.3633 54.066C33.3633 53.1893 32.6903 52.4759 31.8633 52.4759Z" fill="#263238"/>
<path d="M47.3633 66.7876H22.3633C20.7093 66.7876 19.3633 65.3607 19.3633 63.6072V56.1863C19.3633 55.8938 19.5873 55.6563 19.8633 55.6563C20.1393 55.6563 20.3633 55.8938 20.3633 56.1863V63.6072C20.3633 64.7765 21.2603 65.7275 22.3633 65.7275H47.3633C48.4663 65.7275 49.3633 64.7765 49.3633 63.6072V43.9949C49.3633 43.7023 49.5873 43.4648 49.8633 43.4648C50.1393 43.4648 50.3633 43.7023 50.3633 43.9949V63.6072C50.3633 65.3607 49.0173 66.7876 47.3633 66.7876Z" fill="#263238"/>
<path d="M50.8633 41.8748H48.8633C48.3113 41.8748 47.8633 41.3998 47.8633 40.8146V29.1533H51.8633V40.8146C51.8633 41.3998 51.4153 41.8748 50.8633 41.8748Z" fill="#F3632B"/>
<path d="M50.8633 42.4048H48.8633C48.0363 42.4048 47.3633 41.6913 47.3633 40.8146V29.1531C47.3633 28.8605 47.5873 28.623 47.8633 28.623H51.8633C52.1393 28.623 52.3633 28.8605 52.3633 29.1531V40.8146C52.3633 41.6913 51.6903 42.4048 50.8633 42.4048ZM48.3633 29.6832V40.8146C48.3633 41.1061 48.5883 41.3447 48.8633 41.3447H50.8633C51.1383 41.3447 51.3633 41.1061 51.3633 40.8146V29.6832H48.3633Z" fill="#263238"/>
<path d="M49.8633 29.6831C49.5873 29.6831 49.3633 29.4456 49.3633 29.1531V22.2625C49.3633 21.9699 49.5873 21.7324 49.8633 21.7324C50.1393 21.7324 50.3633 21.9699 50.3633 22.2625V29.1531C50.3633 29.4456 50.1393 29.6831 49.8633 29.6831Z" fill="#263238"/>
<path d="M51.8633 39.2246H47.8633C47.5873 39.2246 47.3633 38.987 47.3633 38.6943C47.3633 38.4016 47.5873 38.1641 47.8633 38.1641H51.8633C52.1393 38.1641 52.3633 38.4016 52.3633 38.6943C52.3633 38.987 52.1393 39.2246 51.8633 39.2246Z" fill="#263238"/>
<path d="M55.3633 63.6072H34.3633C32.7093 63.6072 31.3633 62.1802 31.3633 60.4268V56.1863C31.3633 55.8937 31.5873 55.6562 31.8633 55.6562C32.1393 55.6562 32.3633 55.8937 32.3633 56.1863V60.4268C32.3633 61.5961 33.2603 62.5471 34.3633 62.5471H55.3633C56.4663 62.5471 57.3633 61.5961 57.3633 60.4268V41.3445C57.3633 41.0519 57.5873 40.8145 57.8633 40.8145C58.1393 40.8145 58.3633 41.0519 58.3633 41.3445V60.4268C58.3633 62.1802 57.0173 63.6072 55.3633 63.6072Z" fill="#263238"/>
<path d="M58.8633 39.2246H56.8633C56.3113 39.2246 55.8633 38.7497 55.8633 38.1645V26.5029H59.8633V38.1645C59.8633 38.7497 59.4153 39.2246 58.8633 39.2246Z" fill="#F3632B"/>
<path d="M58.8633 39.7544H56.8633C56.0363 39.7544 55.3633 39.0409 55.3633 38.1642V26.503C55.3633 26.2104 55.5873 25.9729 55.8633 25.9729H59.8633C60.1393 25.9729 60.3633 26.2104 60.3633 26.503V38.1642C60.3633 39.0409 59.6903 39.7544 58.8633 39.7544ZM56.3633 27.033V38.1642C56.3633 38.4558 56.5883 38.6943 56.8633 38.6943H58.8633C59.1383 38.6943 59.3633 38.4558 59.3633 38.1642V27.033H56.3633Z" fill="#263238"/>
<path d="M57.8633 27.033C57.5873 27.033 57.3633 26.7955 57.3633 26.5029V19.6121C57.3633 19.3195 57.5873 19.082 57.8633 19.082C58.1393 19.082 58.3633 19.3195 58.3633 19.6121V26.5029C58.3633 26.7955 58.1393 27.033 57.8633 27.033Z" fill="#263238"/>
<path d="M59.8633 36.574H55.8633C55.5873 36.574 55.3633 36.3365 55.3633 36.0439C55.3633 35.7514 55.5873 35.5139 55.8633 35.5139H59.8633C60.1393 35.5139 60.3633 35.7514 60.3633 36.0439C60.3633 36.3365 60.1393 36.574 59.8633 36.574Z" fill="#263238"/>
<path d="M58.8633 5.30029C58.5873 5.30029 58.3633 5.06284 58.3633 4.77026V0.530029C58.3633 0.237453 58.5873 0 58.8633 0C59.1393 0 59.3633 0.237453 59.3633 0.530029V4.77026C59.3633 5.06284 59.1393 5.30029 58.8633 5.30029Z" fill="#263238"/>
<path d="M60.8633 3.18018H56.8633C56.5873 3.18018 56.3633 2.94272 56.3633 2.65015C56.3633 2.35757 56.5873 2.12012 56.8633 2.12012H60.8633C61.1393 2.12012 61.3633 2.35757 61.3633 2.65015C61.3633 2.94272 61.1393 3.18018 60.8633 3.18018Z" fill="#263238"/>
<path d="M52.3633 12.7212C52.0873 12.7212 51.8633 12.4837 51.8633 12.1912V7.95093C51.8633 7.65835 52.0873 7.4209 52.3633 7.4209C52.6393 7.4209 52.8633 7.65835 52.8633 7.95093V12.1912C52.8633 12.4837 52.6393 12.7212 52.3633 12.7212Z" fill="#263238"/>
<path d="M54.3633 10.6011H50.3633C50.0873 10.6011 49.8633 10.3636 49.8633 10.071C49.8633 9.77847 50.0873 9.54102 50.3633 9.54102H54.3633C54.6393 9.54102 54.8633 9.77847 54.8633 10.071C54.8633 10.3636 54.6393 10.6011 54.3633 10.6011Z" fill="#263238"/>
<path d="M1.84729 63.6072H0.863283C0.587282 63.6072 0.363281 63.3697 0.363281 63.0771C0.363281 62.7846 0.587282 62.5471 0.863283 62.5471H1.84729C2.12329 62.5471 2.34729 62.7846 2.34729 63.0771C2.34729 63.3697 2.12429 63.6072 1.84729 63.6072Z" fill="#263238"/>
<path d="M16.0743 63.6072H3.81629C3.54029 63.6072 3.31628 63.3697 3.31628 63.0771C3.31628 62.7846 3.54029 62.5471 3.81629 62.5471H16.0743C16.3503 62.5471 16.5743 62.7846 16.5743 63.0771C16.5743 63.3697 16.3503 63.6072 16.0743 63.6072Z" fill="#263238"/>
</svg>
