<svg width="65" height="65" viewBox="0 0 65 65" fill="none" xmlns="http://www.w3.org/2000/svg">
<path d="M44.4234 7.95068H43.4234C43.1474 7.95068 42.9234 7.71323 42.9234 7.42065C42.9234 7.12808 43.1474 6.89062 43.4234 6.89062H44.4234C44.6994 6.89062 44.9234 7.12808 44.9234 7.42065C44.9234 7.71323 44.7004 7.95068 44.4234 7.95068Z" fill="#263238"/>
<path d="M58.4234 7.95068H46.4234C46.1474 7.95068 45.9234 7.71323 45.9234 7.42065C45.9234 7.12808 46.1474 6.89062 46.4234 6.89062H58.4234C58.6994 6.89062 58.9234 7.12808 58.9234 7.42065C58.9234 7.71323 58.7004 7.95068 58.4234 7.95068Z" fill="#263238"/>
<path d="M63.6814 4.77026H51.6814C51.4054 4.77026 51.1814 4.53281 51.1814 4.24023C51.1814 3.94766 51.4054 3.71021 51.6814 3.71021H63.6814C63.9574 3.71021 64.1814 3.94766 64.1814 4.24023C64.1814 4.53281 63.9574 4.77026 63.6814 4.77026Z" fill="#263238"/>
<path d="M58.7744 40.8145H61.7744L63.2244 36.2019C63.5394 35.199 63.1104 34.1039 62.2174 33.6332L61.7634 33.3937L61.0964 30.0204C60.6764 27.8959 59.0764 26.258 57.0594 25.887L48.9004 24.3827L37.2754 14.4282C36.3854 13.667 35.2764 13.2515 34.1334 13.2515H13.9604C12.3534 13.2515 10.8434 14.0709 9.90341 15.4533L5.27541 22.2624H2.04141C1.26441 22.2624 0.784405 23.1614 1.18441 23.8675L3.27541 27.563V33.3937C1.98841 33.3937 1.02941 34.6509 1.29941 35.9856L2.27541 40.8145H5.27541" fill="#F3632B"/>
<path d="M61.7744 41.3445H58.7744C58.4984 41.3445 58.2744 41.107 58.2744 40.8144C58.2744 40.5218 58.4984 40.2844 58.7744 40.2844H61.4144L62.7514 36.0343C62.9864 35.2869 62.6614 34.459 61.9964 34.1091L61.5414 33.8674C61.4044 33.7964 61.3064 33.6607 61.2744 33.5017L60.6074 30.1284C60.2264 28.2064 58.7994 26.7455 56.9734 26.4074L48.8144 24.9031C48.7314 24.8882 48.6524 24.85 48.5854 24.7928L36.9604 14.8383C36.1614 14.1545 35.1574 13.7792 34.1324 13.7792H13.9594C12.5184 13.7792 11.1524 14.5202 10.3084 15.7616L5.6804 22.5697C5.5864 22.7107 5.4364 22.7923 5.2754 22.7923H2.0404C1.7774 22.7923 1.6484 22.9811 1.6054 23.0616C1.5624 23.1422 1.4764 23.3563 1.6114 23.5959L3.7034 27.2904C3.7504 27.3721 3.7744 27.4664 3.7744 27.5629V33.3936C3.7744 33.6862 3.5504 33.9236 3.2744 33.9236C2.8124 33.9236 2.3814 34.142 2.0904 34.5215C1.8004 34.9021 1.6904 35.3951 1.7864 35.8732L2.6784 40.2833H5.2744C5.5504 40.2833 5.7744 40.5208 5.7744 40.8134C5.7744 41.106 5.5504 41.3434 5.2744 41.3434H2.2744C2.0394 41.3434 1.8354 41.1685 1.7854 40.9236L0.808402 36.0937C0.648402 35.3007 0.832402 34.4844 1.3134 33.8547C1.6874 33.3639 2.2034 33.0363 2.7744 32.9144V27.7081L0.753402 24.1387C0.472402 23.6415 0.465402 23.0425 0.734402 22.5369C1.0034 22.0312 1.4934 21.7322 2.0404 21.7322H5.0194L9.4984 15.1436C10.5294 13.6265 12.1984 12.7212 13.9604 12.7212H34.1334C35.3864 12.7212 36.6134 13.1813 37.5894 14.0167L49.1134 23.8843L57.1454 25.3653C59.3764 25.7777 61.1204 27.5618 61.5854 29.9121L62.2024 33.0331L62.4404 33.1593C63.5484 33.7423 64.0894 35.1237 63.6994 36.3693L62.2484 40.9819C62.1804 41.1982 61.9894 41.3445 61.7744 41.3445Z" fill="#263238"/>
<path d="M41.7744 41.3445H22.2754C21.9994 41.3445 21.7754 41.107 21.7754 40.8145C21.7754 40.5219 21.9994 40.2844 22.2754 40.2844H41.7744C42.0504 40.2844 42.2744 40.5219 42.2744 40.8145C42.2744 41.107 42.0504 41.3445 41.7744 41.3445Z" fill="#263238"/>
<path d="M50.2744 45.0549C53.8643 45.0549 56.7744 41.9698 56.7744 38.1642C56.7744 34.3585 53.8643 31.2734 50.2744 31.2734C46.6846 31.2734 43.7744 34.3585 43.7744 38.1642C43.7744 41.9698 46.6846 45.0549 50.2744 45.0549Z" fill="white"/>
<path d="M50.2744 45.585C46.4154 45.585 43.2744 42.2551 43.2744 38.1641C43.2744 34.073 46.4154 30.7432 50.2744 30.7432C54.1334 30.7432 57.2744 34.073 57.2744 38.1641C57.2744 42.2551 54.1334 45.585 50.2744 45.585ZM50.2744 31.8033C46.9654 31.8033 44.2744 34.6561 44.2744 38.1641C44.2744 41.672 46.9654 44.5248 50.2744 44.5248C53.5834 44.5248 56.2744 41.672 56.2744 38.1641C56.2744 34.6561 53.5824 31.8033 50.2744 31.8033Z" fill="#263238"/>
<path d="M50.2744 42.4045C48.0684 42.4045 46.2744 40.5027 46.2744 38.1641C46.2744 35.8254 48.0684 33.9236 50.2744 33.9236C52.4804 33.9236 54.2744 35.8254 54.2744 38.1641C54.2744 40.5027 52.4804 42.4045 50.2744 42.4045ZM50.2744 34.9837C48.6204 34.9837 47.2744 36.4106 47.2744 38.1641C47.2744 39.9175 48.6204 41.3444 50.2744 41.3444C51.9284 41.3444 53.2744 39.9175 53.2744 38.1641C53.2744 36.4106 51.9284 34.9837 50.2744 34.9837Z" fill="#263238"/>
<path d="M13.7754 45.0549C17.3652 45.0549 20.2754 41.9698 20.2754 38.1642C20.2754 34.3585 17.3652 31.2734 13.7754 31.2734C10.1855 31.2734 7.27539 34.3585 7.27539 38.1642C7.27539 41.9698 10.1855 45.0549 13.7754 45.0549Z" fill="white"/>
<path d="M13.7754 45.585C9.91639 45.585 6.77539 42.2551 6.77539 38.1641C6.77539 34.073 9.91639 30.7432 13.7754 30.7432C17.6344 30.7432 20.7754 34.073 20.7754 38.1641C20.7754 42.2551 17.6344 45.585 13.7754 45.585ZM13.7754 31.8033C10.4664 31.8033 7.77539 34.6561 7.77539 38.1641C7.77539 41.672 10.4664 44.5248 13.7754 44.5248C17.0844 44.5248 19.7754 41.672 19.7754 38.1641C19.7754 34.6561 17.0834 31.8033 13.7754 31.8033Z" fill="#263238"/>
<path d="M13.7754 42.4045C11.5694 42.4045 9.77539 40.5027 9.77539 38.1641C9.77539 35.8254 11.5694 33.9236 13.7754 33.9236C15.9814 33.9236 17.7754 35.8254 17.7754 38.1641C17.7754 40.5027 15.9814 42.4045 13.7754 42.4045ZM13.7754 34.9837C12.1214 34.9837 10.7754 36.4106 10.7754 38.1641C10.7754 39.9175 12.1214 41.3444 13.7754 41.3444C15.4294 41.3444 16.7754 39.9175 16.7754 38.1641C16.7754 36.4106 15.4294 34.9837 13.7754 34.9837Z" fill="#263238"/>
<path d="M15.6664 17.6211L14.5414 20.8015C13.9284 22.5337 15.1364 24.3826 16.8824 24.3826H48.9005L38.9954 15.9016H18.0074C16.9654 15.9016 16.0324 16.5875 15.6664 17.6211Z" fill="white"/>
<path d="M48.9004 24.9126H16.8824C15.8984 24.9126 14.9764 24.4016 14.4164 23.544C13.8554 22.6864 13.7284 21.5913 14.0734 20.6149L15.1974 17.4346C15.6344 16.2006 16.7634 15.3716 18.0074 15.3716H38.9944C39.1084 15.3716 39.2204 15.4129 39.3084 15.4893L49.2134 23.9702C49.3784 24.1112 49.4414 24.3465 49.3704 24.5596C49.3004 24.7705 49.1124 24.9126 48.9004 24.9126ZM16.1334 17.8077L15.0094 20.9881C14.7764 21.6485 14.8594 22.3598 15.2384 22.9408C15.6174 23.5207 16.2174 23.8525 16.8834 23.8525H47.4864L38.8194 16.4317H18.0074C17.1784 16.4317 16.4254 16.984 16.1334 17.8077Z" fill="#263238"/>
<path d="M47.9005 30.1602C47.6245 30.1602 47.4005 29.9227 47.4005 29.6301V26.5029C47.4005 26.2104 47.6245 25.9729 47.9005 25.9729C48.1765 25.9729 48.4005 26.2104 48.4005 26.5029V29.6301C48.4005 29.9238 48.1765 30.1602 47.9005 30.1602Z" fill="#263238"/>
<path d="M27.7744 39.2244C27.4984 39.2244 27.2744 38.9869 27.2744 38.6943V26.503C27.2744 26.2104 27.4984 25.9729 27.7744 25.9729C28.0504 25.9729 28.2744 26.2104 28.2744 26.503V38.6943C28.2744 38.9869 28.0504 39.2244 27.7744 39.2244Z" fill="#263238"/>
<path d="M27.7744 24.9126C27.4984 24.9126 27.2744 24.6751 27.2744 24.3825V15.9016C27.2744 15.609 27.4984 15.3716 27.7744 15.3716C28.0504 15.3716 28.2744 15.609 28.2744 15.9016V24.3825C28.2744 24.6751 28.0504 24.9126 27.7744 24.9126Z" fill="#263238"/>
<path d="M24.4004 31.2734H22.4004C21.5734 31.2734 20.9004 30.56 20.9004 29.6833V27.5631C20.9004 26.6864 21.5734 25.9729 22.4004 25.9729H24.4004C25.2274 25.9729 25.9004 26.6864 25.9004 27.5631V29.6833C25.9004 30.56 25.2274 31.2734 24.4004 31.2734ZM22.4004 27.033C22.1254 27.033 21.9004 27.2715 21.9004 27.5631V29.6833C21.9004 29.9748 22.1254 30.2133 22.4004 30.2133H24.4004C24.6754 30.2133 24.9004 29.9748 24.9004 29.6833V27.5631C24.9004 27.2715 24.6754 27.033 24.4004 27.033H22.4004Z" fill="#263238"/>
<path d="M61.7634 33.3938L61.0964 30.0203C61.0364 29.7192 60.9484 29.4319 60.8434 29.1531H58.6094C57.8664 29.1531 57.3824 29.9821 57.7154 30.6872L58.9914 33.3938H61.7634Z" fill="white"/>
<path d="M61.7634 33.9236H58.9914C58.8024 33.9236 58.6294 33.8102 58.5444 33.631L57.2684 30.9245C57.0344 30.4273 57.0594 29.8485 57.3344 29.3768C57.6094 28.905 58.0864 28.623 58.6094 28.623H60.8434C61.0484 28.623 61.2334 28.7556 61.3084 28.957C61.4344 29.2952 61.5254 29.6068 61.5854 29.9111L62.2524 33.2843C62.2834 33.4402 62.2464 33.6034 62.1504 33.7275C62.0564 33.8515 61.9134 33.9236 61.7634 33.9236ZM59.2994 32.8635H61.1484L60.6074 30.1295C60.5794 29.9853 60.5414 29.839 60.4934 29.6832H58.6094C58.3584 29.6832 58.2284 29.8591 58.1844 29.9344C58.1404 30.0097 58.0494 30.2121 58.1624 30.4496L59.2994 32.8635Z" fill="#263238"/>
<path d="M38.4004 61.4868H16.1504C13.2554 61.4868 10.9004 58.9902 10.9004 55.9212C10.9004 52.8521 13.2554 50.3555 16.1504 50.3555H49.9004C50.4524 50.3555 50.9004 49.8806 50.9004 49.2954C50.9004 48.7102 50.4524 48.2353 49.9004 48.2353H28.4004C25.3684 48.2353 22.9004 45.6189 22.9004 42.4046V28.6231C22.9004 28.3305 23.1244 28.093 23.4004 28.093C23.6764 28.093 23.9004 28.3305 23.9004 28.6231V42.4046C23.9004 45.0348 25.9194 47.1752 28.4004 47.1752H49.9004C51.0034 47.1752 51.9004 48.1261 51.9004 49.2954C51.9004 50.4647 51.0034 51.4157 49.9004 51.4157H16.1504C13.8064 51.4157 11.9004 53.4363 11.9004 55.9212C11.9004 58.4061 13.8064 60.4267 16.1504 60.4267H38.4004C38.6764 60.4267 38.9004 60.6642 38.9004 60.9568C38.9004 61.2493 38.6764 61.4868 38.4004 61.4868Z" fill="#263238"/>
<path d="M44.4005 64.6672H40.9005C39.2465 64.6672 37.9005 63.2403 37.9005 61.4869V60.4267C37.9005 58.6733 39.2465 57.2463 40.9005 57.2463H44.4005C44.6765 57.2463 44.9005 57.4838 44.9005 57.7764V64.1372C44.9005 64.4298 44.6765 64.6672 44.4005 64.6672ZM40.9005 58.3065C39.7975 58.3065 38.9005 59.2574 38.9005 60.4267V61.4869C38.9005 62.6562 39.7975 63.6071 40.9005 63.6071H43.9005V58.3065H40.9005Z" fill="#263238"/>
<path d="M47.4005 59.3667H44.4005C44.1245 59.3667 43.9005 59.1292 43.9005 58.8365C43.9005 58.5439 44.1245 58.3064 44.4005 58.3064H47.4005C47.6765 58.3064 47.9005 58.5439 47.9005 58.8365C47.9005 59.1292 47.6765 59.3667 47.4005 59.3667Z" fill="#263238"/>
<path d="M47.4005 63.6072H44.4005C44.1245 63.6072 43.9005 63.3697 43.9005 63.077C43.9005 62.7844 44.1245 62.5469 44.4005 62.5469H47.4005C47.6765 62.5469 47.9005 62.7844 47.9005 63.077C47.9005 63.3697 47.6765 63.6072 47.4005 63.6072Z" fill="#263238"/>
<path d="M1.68142 13.7813C1.59042 13.7813 1.49942 13.7558 1.41842 13.7028C1.22142 13.5735 1.13342 13.3169 1.20642 13.0837L2.98843 7.42057H0.681422C0.479422 7.42057 0.296422 7.29124 0.219421 7.093C0.142421 6.89476 0.185421 6.66683 0.327422 6.51524L6.32743 0.154557C6.49243 -0.0193016 6.74843 -0.0489847 6.94343 0.0782288C7.14143 0.207563 7.22943 0.46411 7.15643 0.697335L5.37443 6.36046H7.68143C7.88343 6.36046 8.06643 6.48979 8.14343 6.68803C8.22043 6.88628 8.17743 7.1142 8.03543 7.2658L2.03542 13.6265C1.93842 13.7282 1.81042 13.7813 1.68142 13.7813ZM4.18143 6.89264C4.18143 6.94882 4.17243 7.00395 4.15643 7.05801L2.82643 11.2879L6.47443 7.42057H4.68143C4.52043 7.42057 4.36943 7.33894 4.27643 7.20007C4.21343 7.10996 4.18143 7.00183 4.18143 6.89264ZM1.88842 6.36046H3.68143C3.84243 6.36046 3.99343 6.44209 4.08643 6.58096C4.14943 6.67107 4.18143 6.7792 4.18143 6.8884C4.18143 6.83221 4.19043 6.77708 4.20643 6.72302L5.53643 2.49317L1.88842 6.36046Z" fill="#263238"/>
</svg>
