<svg width="64" height="59" viewBox="0 0 64 59" fill="none" xmlns="http://www.w3.org/2000/svg">
<path d="M3.5 58.3069H0.5C0.224 58.3069 0 58.0694 0 57.7769C0 57.4843 0.224 57.2468 0.5 57.2468H3.5C3.776 57.2468 4 57.4843 4 57.7769C4 58.0694 3.776 58.3069 3.5 58.3069Z" fill="#263238"/>
<path d="M63.5 58.3069H5.5C5.224 58.3069 5 58.0694 5 57.7769C5 57.4843 5.224 57.2468 5.5 57.2468H63.5C63.776 57.2468 64 57.4843 64 57.7769C64 58.0694 63.776 58.3069 63.5 58.3069Z" fill="#263238"/>
<path d="M58.5 53.5361H60.779C61.209 53.5361 61.592 53.2446 61.728 52.811L62.95 48.9235C63.265 47.9207 62.836 46.8255 61.943 46.3549L61.489 46.1153L60.822 42.7419C60.402 40.6175 58.802 38.9796 56.785 38.6085L48.625 37.1042L37 27.1496C36.11 26.3885 35.001 25.9729 33.858 25.9729H13.685C12.078 25.9729 10.568 26.7924 9.62801 28.1748L5.00001 34.984H1.76601C0.989015 34.984 0.509015 35.8829 0.909015 36.589L3.00001 40.2846V46.1153C1.71301 46.1153 0.754015 47.3726 1.02401 48.7073L1.83101 52.6986C1.93001 53.1873 2.33701 53.5361 2.80901 53.5361H5.00001" fill="#F3632B"/>
<path d="M60.779 54.0664H58.5C58.224 54.0664 58 53.8289 58 53.5363C58 53.2437 58.224 53.0063 58.5 53.0063H60.779C60.994 53.0063 61.185 52.86 61.254 52.6437L62.476 48.7562C62.711 48.0088 62.386 47.1809 61.721 46.8289L61.267 46.5904C61.13 46.5183 61.032 46.3836 61 46.2236L60.333 42.8502C59.952 40.9271 58.526 39.4663 56.7 39.1292L48.54 37.6248C48.456 37.61 48.377 37.5718 48.311 37.5146L36.686 27.56C35.889 26.8762 34.884 26.5009 33.858 26.5009H13.685C12.242 26.5009 10.877 27.2419 10.034 28.4823L5.40595 35.2915C5.31195 35.4325 5.16095 35.5141 4.99995 35.5141H1.76595C1.50295 35.5141 1.37395 35.7018 1.33095 35.7834C1.28795 35.864 1.20195 36.077 1.33695 36.3177L3.42795 40.0123C3.47595 40.0939 3.49995 40.1882 3.49995 40.2847V46.1154C3.49995 46.408 3.27595 46.6455 2.99995 46.6455C2.53895 46.6455 2.10695 46.8639 1.81695 47.2434C1.52695 47.624 1.41595 48.117 1.51195 48.5951L2.31895 52.5875C2.36895 52.8303 2.57395 53.0063 2.80895 53.0063H4.99995C5.27595 53.0063 5.49995 53.2437 5.49995 53.5363C5.49995 53.8289 5.27595 54.0664 4.99995 54.0664H2.80895C2.10695 54.0664 1.48995 53.5385 1.34195 52.8102L0.534944 48.8166C0.374944 48.0237 0.557944 47.2074 1.03895 46.5776C1.41295 46.0868 1.92895 45.7592 2.49895 45.6373V40.431L0.478944 36.8615C0.196944 36.3633 0.189944 35.7654 0.459944 35.2597C0.729945 34.754 1.21895 34.454 1.76595 34.454H4.74395L9.22296 27.8653C10.254 26.3482 11.922 25.4429 13.685 25.4429H33.858C35.112 25.4429 36.339 25.903 37.314 26.7384L48.838 36.606L56.87 38.0871C59.102 38.4984 60.845 40.2826 61.31 42.634L61.928 45.755L62.165 45.879C63.274 46.4653 63.815 47.8445 63.423 49.0912L62.201 52.9787C61.997 53.6296 61.425 54.0664 60.779 54.0664Z" fill="#263238"/>
<path d="M41.5 54.0664H22C21.724 54.0664 21.5 53.8289 21.5 53.5363C21.5 53.2436 21.724 53.0061 22 53.0061H41.5C41.776 53.0061 42 53.2436 42 53.5363C42 53.8289 41.776 54.0664 41.5 54.0664Z" fill="#263238"/>
<path d="M50 57.7766C53.5899 57.7766 56.5 54.6915 56.5 50.8859C56.5 47.0802 53.5899 43.9951 50 43.9951C46.4101 43.9951 43.5 47.0802 43.5 50.8859C43.5 54.6915 46.4101 57.7766 50 57.7766Z" fill="white"/>
<path d="M50 58.3069C46.14 58.3069 43 54.977 43 50.886C43 46.795 46.14 43.4651 50 43.4651C53.86 43.4651 57 46.795 57 50.886C57 54.977 53.859 58.3069 50 58.3069ZM50 44.5252C46.691 44.5252 44 47.378 44 50.886C44 54.394 46.691 57.2468 50 57.2468C53.309 57.2468 56 54.394 56 50.886C56 47.378 53.308 44.5252 50 44.5252Z" fill="#263238"/>
<path d="M50 55.1265C47.794 55.1265 46 53.2246 46 50.886C46 48.5474 47.794 46.6455 50 46.6455C52.206 46.6455 54 48.5474 54 50.886C54 53.2246 52.205 55.1265 50 55.1265ZM50 47.7056C48.346 47.7056 47 49.1325 47 50.886C47 52.6394 48.346 54.0663 50 54.0663C51.654 54.0663 53 52.6394 53 50.886C53 49.1325 51.654 47.7056 50 47.7056Z" fill="#263238"/>
<path d="M13.5 57.7766C17.0899 57.7766 20 54.6915 20 50.8859C20 47.0802 17.0899 43.9951 13.5 43.9951C9.91015 43.9951 7 47.0802 7 50.8859C7 54.6915 9.91015 57.7766 13.5 57.7766Z" fill="white"/>
<path d="M13.5 58.3069C9.64 58.3069 6.5 54.977 6.5 50.886C6.5 46.795 9.64 43.4651 13.5 43.4651C17.36 43.4651 20.5 46.795 20.5 50.886C20.5 54.977 17.36 58.3069 13.5 58.3069ZM13.5 44.5252C10.191 44.5252 7.5 47.378 7.5 50.886C7.5 54.394 10.191 57.2468 13.5 57.2468C16.809 57.2468 19.5 54.394 19.5 50.886C19.5 47.378 16.809 44.5252 13.5 44.5252Z" fill="#263238"/>
<path d="M13.5 55.1265C11.294 55.1265 9.5 53.2246 9.5 50.886C9.5 48.5474 11.294 46.6455 13.5 46.6455C15.706 46.6455 17.5 48.5474 17.5 50.886C17.5 53.2246 15.706 55.1265 13.5 55.1265ZM13.5 47.7056C11.846 47.7056 10.5 49.1325 10.5 50.886C10.5 52.6394 11.846 54.0663 13.5 54.0663C15.154 54.0663 16.5 52.6394 16.5 50.886C16.5 49.1325 15.154 47.7056 13.5 47.7056Z" fill="#263238"/>
<path d="M15.391 30.3429L14.266 33.5233C13.653 35.2556 14.861 37.1045 16.607 37.1045H48.625L38.72 28.6233H17.732C16.69 28.6233 15.757 29.3081 15.391 30.3429Z" fill="white"/>
<path d="M48.625 37.6343H16.607C15.624 37.6343 14.702 37.1233 14.142 36.2657C13.581 35.408 13.453 34.314 13.798 33.3366L14.923 30.1562C15.36 28.9223 16.489 28.0933 17.732 28.0933H38.72C38.834 28.0933 38.945 28.1346 39.034 28.2109L48.939 36.6918C49.104 36.8328 49.167 37.0682 49.096 37.2813C49.026 37.4922 48.837 37.6343 48.625 37.6343ZM15.859 30.5294L14.734 33.7097C14.5 34.3702 14.584 35.0815 14.963 35.6625C15.342 36.2423 15.941 36.5742 16.607 36.5742H47.21L38.543 29.1534H17.732C16.903 29.1534 16.15 29.7057 15.859 30.5294Z" fill="#263238"/>
<path d="M47.625 42.8809C47.349 42.8809 47.125 42.6434 47.125 42.3508V39.2246C47.125 38.932 47.349 38.6946 47.625 38.6946C47.901 38.6946 48.125 38.932 48.125 39.2246V42.3508C48.125 42.6445 47.901 42.8809 47.625 42.8809Z" fill="#263238"/>
<path d="M27.5 51.946C27.224 51.946 27 51.7086 27 51.416V39.2246C27 38.932 27.224 38.6946 27.5 38.6946C27.776 38.6946 28 38.932 28 39.2246V51.416C28 51.7086 27.776 51.946 27.5 51.946Z" fill="#263238"/>
<path d="M27.5 37.6343C27.224 37.6343 27 37.3968 27 37.1042V28.6233C27 28.3307 27.224 28.0933 27.5 28.0933C27.776 28.0933 28 28.3307 28 28.6233V37.1042C28 37.3968 27.776 37.6343 27.5 37.6343Z" fill="#263238"/>
<path d="M9.125 42.405H7.125C6.298 42.405 5.625 41.6916 5.625 40.8149V38.6947C5.625 37.8179 6.298 37.1045 7.125 37.1045H9.125C9.952 37.1045 10.625 37.8179 10.625 38.6947V40.8149C10.625 41.6916 9.952 42.405 9.125 42.405ZM7.125 38.1646C6.849 38.1646 6.625 38.4031 6.625 38.6947V40.8149C6.625 41.1064 6.849 41.3449 7.125 41.3449H9.125C9.401 41.3449 9.625 41.1064 9.625 40.8149V38.6947C9.625 38.4031 9.401 38.1646 9.125 38.1646H7.125Z" fill="#263238"/>
<path d="M61.489 46.1152L60.822 42.7419C60.762 42.4409 60.674 42.1536 60.569 41.8748H58.335C57.592 41.8748 57.108 42.7038 57.441 43.4087L58.716 46.1152H61.489Z" fill="white"/>
<path d="M61.489 46.6455H58.717C58.528 46.6455 58.355 46.5321 58.27 46.3529L56.994 43.6465C56.76 43.1493 56.785 42.5705 57.059 42.0987C57.334 41.627 57.811 41.345 58.335 41.345H60.569C60.774 41.345 60.958 41.4775 61.034 41.6789C61.16 42.0171 61.251 42.3288 61.311 42.633L61.978 46.0063C62.009 46.1621 61.972 46.3254 61.877 46.4494C61.782 46.5734 61.639 46.6455 61.489 46.6455ZM59.025 45.5854H60.873L60.332 42.8514C60.303 42.7072 60.266 42.5609 60.218 42.4051H58.334C58.083 42.4051 57.953 42.5811 57.909 42.6563C57.865 42.7316 57.774 42.933 57.887 43.1715L59.025 45.5854Z" fill="#263238"/>
<path d="M36.042 49.2957C35.938 49.2957 35.836 49.2617 35.75 49.1949C35.62 49.0953 35.542 48.9363 35.542 48.7656V43.6845L33.188 41.189C32.993 40.9822 32.993 40.6462 33.188 40.4395C33.383 40.2327 33.7 40.2327 33.895 40.4395L36.395 43.0897C36.489 43.1894 36.541 43.324 36.541 43.465V48.0309L40.383 46.6729C40.647 46.5807 40.928 46.7323 41.015 47.0079C41.102 47.2857 40.961 47.5857 40.699 47.679L36.199 49.2691C36.148 49.2861 36.095 49.2957 36.042 49.2957Z" fill="#263238"/>
<path d="M30.042 47.1755C30.009 47.1755 29.977 47.1724 29.944 47.1649L22.444 45.5746C22.173 45.5174 21.998 45.2386 22.052 44.9512C22.106 44.6639 22.366 44.4763 22.64 44.5346L29.972 46.0888L35.819 42.9899C36.0651 42.8584 36.3661 42.9666 36.4901 43.2274C36.6141 43.4892 36.513 43.8073 36.266 43.9388L30.266 47.1193C30.195 47.1565 30.119 47.1755 30.042 47.1755Z" fill="#263238"/>
<path d="M52.156 15.9016H47.058C45.984 15.9016 44.986 15.2878 44.453 14.2987L43.607 12.7298C43.252 12.0704 42.587 11.6612 41.871 11.6612H16.155C15.213 12.6746 13.932 13.2513 12.607 13.2513C9.85 13.2513 7.60699 10.8735 7.60699 7.95081C7.60699 5.02809 9.85 2.65027 12.607 2.65027C13.933 2.65027 15.213 3.22697 16.155 4.24043H41.87C42.586 4.24043 43.251 3.83123 43.606 3.17184L44.452 1.60288C44.986 0.613802 45.984 0 47.058 0H52.156C53.23 0 54.228 0.613802 54.76 1.60288L56.326 4.50758C56.414 4.67083 56.414 4.87331 56.325 5.03657C56.235 5.19983 56.071 5.30054 55.893 5.30054H49.416L48.166 7.95081L49.416 10.6011H55.893C56.071 10.6011 56.236 10.7018 56.326 10.865C56.415 11.0283 56.416 11.2308 56.327 11.394L54.761 14.2987C54.229 15.2878 53.23 15.9016 52.156 15.9016ZM15.939 10.6011H41.871C42.945 10.6011 43.943 11.2149 44.475 12.204L45.321 13.7729C45.676 14.4323 46.342 14.8415 47.058 14.8415H52.156C52.872 14.8415 53.537 14.4323 53.892 13.7729L55.03 11.6612H49.106C48.917 11.6612 48.744 11.5478 48.659 11.3686L47.159 8.18827C47.089 8.03879 47.089 7.86282 47.159 7.7144L48.659 4.53408C48.745 4.35386 48.917 4.24043 49.107 4.24043H55.031L53.893 2.1287C53.538 1.46931 52.873 1.06011 52.156 1.06011H47.058C46.342 1.06011 45.677 1.46931 45.321 2.1287L44.475 3.69765C43.943 4.68674 42.945 5.30054 41.871 5.30054H15.939C15.797 5.30054 15.662 5.23587 15.567 5.12562C14.792 4.21287 13.741 3.71038 12.607 3.71038C10.401 3.71038 8.607 5.61221 8.607 7.95081C8.607 10.2894 10.401 12.1912 12.607 12.1912C13.74 12.1912 14.792 11.6887 15.567 10.776C15.662 10.6657 15.797 10.6011 15.939 10.6011ZM12.607 10.6011C11.229 10.6011 10.107 9.41269 10.107 7.95081C10.107 6.48892 11.229 5.30054 12.607 5.30054C13.985 5.30054 15.107 6.48892 15.107 7.95081C15.107 9.41269 13.985 10.6011 12.607 10.6011ZM12.607 6.36064C11.78 6.36064 11.107 7.0741 11.107 7.95081C11.107 8.82751 11.78 9.54097 12.607 9.54097C13.434 9.54097 14.107 8.82751 14.107 7.95081C14.107 7.0741 13.434 6.36064 12.607 6.36064Z" fill="#263238"/>
<path d="M39.6071 8.48096H19.6071C19.3311 8.48096 19.1071 8.24345 19.1071 7.95081C19.1071 7.65816 19.3311 7.42065 19.6071 7.42065H39.6071C39.8831 7.42065 40.1071 7.65816 40.1071 7.95081C40.1071 8.24345 39.8831 8.48096 39.6071 8.48096Z" fill="#263238"/>
<path d="M61.5 23.7202C61.224 23.7202 61 23.4828 61 23.1902V18.9497C61 18.6571 61.224 18.4197 61.5 18.4197C61.776 18.4197 62 18.6571 62 18.9497V23.1902C62 23.4828 61.776 23.7202 61.5 23.7202Z" fill="#263238"/>
<path d="M63.5 21.5999H59.5C59.224 21.5999 59 21.3624 59 21.0698C59 20.7772 59.224 20.5398 59.5 20.5398H63.5C63.776 20.5398 64 20.7772 64 21.0698C64 21.3624 63.776 21.5999 63.5 21.5999Z" fill="#263238"/>
<path d="M53.5 30.0811C53.224 30.0811 53 29.8436 53 29.551V25.3104C53 25.0177 53.224 24.7803 53.5 24.7803C53.776 24.7803 54 25.0177 54 25.3104V29.551C54 29.8436 53.776 30.0811 53.5 30.0811Z" fill="#263238"/>
<path d="M55.5 27.9607H51.5C51.224 27.9607 51 27.7232 51 27.4307C51 27.1381 51.224 26.9006 51.5 26.9006H55.5C55.776 26.9006 56 27.1381 56 27.4307C56 27.7232 55.776 27.9607 55.5 27.9607Z" fill="#263238"/>
</svg>
