<svg width="39" height="42" viewBox="0 0 39 42" fill="none" xmlns="http://www.w3.org/2000/svg">
<path fill-rule="evenodd" clip-rule="evenodd" d="M36.3989 12.715L35.1663 10.608C34.6659 9.75199 33.8418 9.12649 32.8745 8.86867C31.9072 8.61085 30.8757 8.74174 30.0061 9.23264C29.5791 9.48085 29.1067 9.64354 28.6158 9.71139C28.125 9.77924 27.6254 9.75091 27.1457 9.62804C26.6659 9.50516 26.2155 9.29015 25.8202 8.99533C25.4249 8.7005 25.0925 8.33166 24.842 7.90994C24.5174 7.36908 24.3434 6.75331 24.3375 6.12488C24.352 5.62566 24.2648 5.12863 24.081 4.66325C23.8972 4.19787 23.6205 3.7736 23.2674 3.41558C22.9143 3.05755 22.4918 2.77306 22.0251 2.57894C21.5584 2.38483 21.057 2.28506 20.5505 2.28552H18.0693C17.5733 2.28578 17.0822 2.38262 16.6242 2.5705C16.1662 2.75839 15.7503 3.03361 15.4005 3.38037C15.0506 3.72712 14.7737 4.13859 14.5855 4.59116C14.3974 5.04372 14.3017 5.52847 14.3041 6.01758C14.2901 6.99822 13.8851 7.93401 13.1768 8.62255C12.4685 9.31109 11.5137 9.69705 10.5191 9.69695C9.88068 9.6903 9.25542 9.51732 8.70669 9.19558C7.83711 8.70467 6.8056 8.57378 5.8383 8.8316C4.871 9.08943 4.04685 9.71492 3.54655 10.571L2.22288 12.715C1.72352 13.5703 1.58806 14.5857 1.84614 15.5393C2.10421 16.4928 2.73481 17.3067 3.59997 17.8029C4.17564 18.1304 4.65371 18.6015 4.9861 19.169C5.31849 19.7365 5.49349 20.3802 5.49349 21.0355C5.49349 21.6908 5.31849 22.3346 4.9861 22.902C4.65371 23.4695 4.17564 23.9407 3.59997 24.2681C2.7355 24.761 2.10485 25.5721 1.84663 26.5233C1.58841 27.4744 1.72374 28.4877 2.22288 29.3405L3.47334 31.465C3.7151 31.895 4.04066 32.2737 4.4313 32.5793C4.82195 32.8849 5.26999 33.1114 5.74967 33.2457C6.22936 33.38 6.73124 33.4196 7.22648 33.3621C7.72172 33.3046 8.20055 33.1511 8.63546 32.9106C9.06311 32.6646 9.53594 32.5045 10.0267 32.4396C10.5174 32.3747 11.0163 32.4063 11.4946 32.5325C11.9729 32.6588 12.421 32.8772 12.8133 33.1751C13.2055 33.473 13.534 33.8446 13.7798 34.2684C14.1043 34.8088 14.2784 35.4253 14.2843 36.0535C14.2843 38.1156 15.98 39.7855 18.0693 39.7855H20.5505C22.6339 39.7855 24.3256 38.1273 24.3375 36.071C24.3351 35.5803 24.4314 35.0939 24.6208 34.6401C24.8102 34.1862 25.0889 33.7739 25.4408 33.4269C25.7928 33.0799 26.211 32.8051 26.6713 32.6183C27.1315 32.4316 27.6248 32.3367 28.1225 32.339C28.7576 32.3565 29.3809 32.5282 29.9329 32.8384C30.8003 33.3316 31.8305 33.4658 32.798 33.2116C33.7654 32.9575 34.5914 32.3358 35.095 31.4825L36.3989 29.3385C36.6485 28.9156 36.8109 28.4482 36.8768 27.9632C36.9427 27.4782 36.9107 26.9851 36.7828 26.5124C36.6548 26.0396 36.4334 25.5964 36.1312 25.2082C35.829 24.8201 35.452 24.4946 35.0218 24.2506C34.5911 24.0065 34.2137 23.6809 33.9111 23.2925C33.6086 22.904 33.3869 22.4604 33.2589 21.9872C33.1309 21.5139 33.0991 21.0204 33.1653 20.535C33.2316 20.0496 33.3945 19.5819 33.6447 19.1588C33.9732 18.595 34.448 18.1267 35.0218 17.8029C35.8827 17.3068 36.5102 16.4957 36.7681 15.5459C37.026 14.5962 36.8933 13.5844 36.3989 12.7306V12.715Z" stroke="#FF6600" stroke-width="3.00417" stroke-linecap="round" stroke-linejoin="round"/>
<path d="M19.3197 26.1768C22.2002 26.1768 24.5353 23.8744 24.5353 21.0343C24.5353 18.1941 22.2002 15.8917 19.3197 15.8917C16.4393 15.8917 14.1042 18.1941 14.1042 21.0343C14.1042 23.8744 16.4393 26.1768 19.3197 26.1768Z" stroke="#FF6600" stroke-width="3.00417" stroke-linecap="round" stroke-linejoin="round"/>
</svg>
