<svg width="64" height="64" viewBox="0 0 64 64" fill="none" xmlns="http://www.w3.org/2000/svg">
<path d="M57 22H23C21.619 22 20.5 23.119 20.5 24.5V37.5C20.5 38.881 21.619 40 23 40H37.649H39.773L44.906 54.342C45.262 55.337 46.204 56 47.26 56H58.13C58.807 56 59.289 55.34 59.082 54.695L54.38 40H56.48H57C58.381 40 59.5 38.881 59.5 37.5V24.5C59.5 23.119 58.381 22 57 22Z" fill="#F3632B"/>
<path d="M57 40.5H56.479C56.203 40.5 55.979 40.276 55.979 40C55.979 39.724 56.203 39.5 56.479 39.5H57C58.103 39.5 59 38.603 59 37.5V24.5C59 23.397 58.103 22.5 57 22.5H23C21.897 22.5 21 23.397 21 24.5V37.5C21 38.603 21.897 39.5 23 39.5H37.649C37.925 39.5 38.149 39.724 38.149 40C38.149 40.276 37.925 40.5 37.649 40.5H23C21.346 40.5 20 39.154 20 37.5V24.5C20 22.846 21.346 21.5 23 21.5H57C58.654 21.5 60 22.846 60 24.5V37.5C60 39.154 58.654 40.5 57 40.5Z" fill="#263238"/>
<path d="M36 18H29.5C26.467 18 24 15.532 24 12.5V3C24 1.346 25.346 0 27 0H38.5C40.154 0 41.5 1.346 41.5 3V12.5C41.5 15.532 39.033 18 36 18ZM27 1C25.897 1 25 1.897 25 3V12.5C25 14.981 27.019 17 29.5 17H36C38.481 17 40.5 14.981 40.5 12.5V3C40.5 1.897 39.603 1 38.5 1H27Z" fill="#263238"/>
<path d="M18.5 34.5H14C13.173 34.5 12.5 33.827 12.5 33V29C12.5 28.173 13.173 27.5 14 27.5H18.5C18.776 27.5 19 27.724 19 28C19 28.276 18.776 28.5 18.5 28.5H14C13.724 28.5 13.5 28.725 13.5 29V33C13.5 33.275 13.724 33.5 14 33.5H18.5C18.776 33.5 19 33.724 19 34C19 34.276 18.776 34.5 18.5 34.5Z" fill="#263238"/>
<path d="M62.5 29.5H61.5C61.224 29.5 61 29.276 61 29C61 28.724 61.224 28.5 61.5 28.5H62.5C62.776 28.5 63 28.275 63 28V26C63 25.725 62.776 25.5 62.5 25.5H61.5C61.224 25.5 61 25.276 61 25C61 24.724 61.224 24.5 61.5 24.5H62.5C63.327 24.5 64 25.173 64 26V28C64 28.827 63.327 29.5 62.5 29.5Z" fill="#263238"/>
<path d="M55.698 59.5H49.838C48.833 59.5 47.9 59.001 47.342 58.164L46.084 56.277C45.982 56.124 45.972 55.926 46.059 55.763C46.146 55.601 46.315 55.499 46.5 55.499H58.5C58.661 55.499 58.812 55.576 58.906 55.707C59 55.837 59.026 56.005 58.974 56.157L58.544 57.448C58.135 58.676 56.991 59.5 55.698 59.5ZM47.434 56.5L48.174 57.609C48.546 58.167 49.168 58.5 49.838 58.5H55.698C56.56 58.5 57.323 57.95 57.596 57.133L57.806 56.5H47.434Z" fill="#263238"/>
<path d="M58.13 56.5H47.26C45.996 56.5 44.861 55.701 44.436 54.511L38.822 38.826C38.538 38.032 37.782 37.5 36.939 37.5H22.5C22.224 37.5 22 37.276 22 37C22 36.724 22.224 36.5 22.5 36.5H36.939C38.203 36.5 39.338 37.299 39.763 38.489L45.377 54.174C45.661 54.968 46.417 55.5 47.26 55.5H58.13C58.292 55.5 58.439 55.425 58.534 55.295C58.629 55.164 58.656 55.002 58.606 54.848L51.023 31.153C50.939 30.89 51.084 30.609 51.347 30.524C51.61 30.442 51.891 30.586 51.975 30.848L59.558 54.543C59.706 55.004 59.627 55.493 59.341 55.885C59.056 56.275 58.614 56.5 58.13 56.5Z" fill="#263238"/>
<path d="M35 20.5C34.724 20.5 34.5 20.276 34.5 20V17.5C34.5 17.224 34.724 17 35 17C35.276 17 35.5 17.224 35.5 17.5V20C35.5 20.276 35.276 20.5 35 20.5Z" fill="#263238"/>
<path d="M30.5 20.5C30.224 20.5 30 20.276 30 20V17.5C30 17.224 30.224 17 30.5 17C30.776 17 31 17.224 31 17.5V20C31 20.276 30.776 20.5 30.5 20.5Z" fill="#263238"/>
<path d="M1.5 31.5H0.5C0.224 31.5 0 31.276 0 31C0 30.724 0.224 30.5 0.5 30.5H1.5C1.776 30.5 2 30.724 2 31C2 31.276 1.776 31.5 1.5 31.5Z" fill="#263238"/>
<path d="M11 31.5H3.5C3.224 31.5 3 31.276 3 31C3 30.724 3.224 30.5 3.5 30.5H11C11.276 30.5 11.5 30.724 11.5 31C11.5 31.276 11.276 31.5 11 31.5Z" fill="#263238"/>
<path d="M0.899001 38.519C0.703001 38.519 0.517001 38.403 0.437001 38.21C0.332001 37.955 0.453001 37.662 0.708001 37.557L1.632 37.174C1.885 37.069 2.18 37.19 2.285 37.445C2.39 37.7 2.269 37.993 2.014 38.098L1.091 38.48C1.028 38.507 0.963001 38.519 0.899001 38.519Z" fill="#263238"/>
<path d="M3.671 37.37C3.475 37.37 3.289 37.254 3.209 37.061C3.104 36.806 3.225 36.513 3.48 36.408L10.409 33.538C10.664 33.432 10.957 33.554 11.062 33.809C11.167 34.064 11.046 34.357 10.791 34.462L3.862 37.332C3.8 37.358 3.735 37.37 3.671 37.37Z" fill="#263238"/>
<path d="M1.823 24.864C1.759 24.864 1.694 24.852 1.632 24.826L0.708001 24.443C0.453001 24.338 0.332001 24.045 0.437001 23.79C0.542001 23.535 0.837001 23.413 1.09 23.519L2.014 23.902C2.269 24.007 2.39 24.3 2.285 24.555C2.206 24.748 2.019 24.864 1.823 24.864Z" fill="#263238"/>
<path d="M10.6 28.5C10.536 28.5 10.471 28.488 10.409 28.462L3.48 25.592C3.225 25.487 3.104 25.194 3.209 24.939C3.314 24.684 3.607 24.562 3.862 24.668L10.791 27.538C11.046 27.643 11.167 27.936 11.062 28.191C10.982 28.384 10.796 28.5 10.6 28.5Z" fill="#263238"/>
<path d="M55.5 28.5H48.5C47.673 28.5 47 27.827 47 27V26C47 25.173 47.673 24.5 48.5 24.5H55.5C56.327 24.5 57 25.173 57 26V27C57 27.827 56.327 28.5 55.5 28.5ZM48.5 25.5C48.224 25.5 48 25.725 48 26V27C48 27.275 48.224 27.5 48.5 27.5H55.5C55.776 27.5 56 27.275 56 27V26C56 25.725 55.776 25.5 55.5 25.5H48.5Z" fill="#263238"/>
<path d="M50.5 64H20.5C20.224 64 20 63.776 20 63.5C20 63.224 20.224 63 20.5 63H50.5C51.603 63 52.5 62.103 52.5 61V59C52.5 58.724 52.724 58.5 53 58.5C53.276 58.5 53.5 58.724 53.5 59V61C53.5 62.654 52.154 64 50.5 64Z" fill="#263238"/>
<path d="M36 17.5H29.5C26.739 17.5 24.5 15.261 24.5 12.5V6.5H41V12.5C41 15.261 38.761 17.5 36 17.5Z" fill="#F3632B"/>
<path d="M36 18H29.5C26.467 18 24 15.532 24 12.5V6.5C24 6.224 24.224 6 24.5 6H41C41.276 6 41.5 6.224 41.5 6.5V12.5C41.5 15.532 39.033 18 36 18ZM25 7V12.5C25 14.981 27.019 17 29.5 17H36C38.481 17 40.5 14.981 40.5 12.5V7H25Z" fill="#263238"/>
<path d="M40.495 49.5H35.994C35.515 49.5 35.076 49.279 34.79 48.896C34.504 48.511 34.419 48.028 34.557 47.57L35.65 43.927V42C35.65 41.724 35.874 41.5 36.15 41.5C36.426 41.5 36.65 41.724 36.65 42V44C36.65 44.049 36.643 44.097 36.629 44.144L35.515 47.857C35.469 48.01 35.497 48.171 35.592 48.299C35.687 48.427 35.834 48.5 35.993 48.5H40.494C40.77 48.5 40.994 48.724 40.994 49C40.994 49.276 40.771 49.5 40.495 49.5Z" fill="#263238"/>
<path d="M35.5 15C35.224 15 35 14.776 35 14.5C35 14.224 35.224 14 35.5 14C36.603 14 37.5 13.103 37.5 12V9.5C37.5 9.224 37.724 9 38 9C38.276 9 38.5 9.224 38.5 9.5V12C38.5 13.654 37.154 15 35.5 15Z" fill="#263238"/>
<path d="M15.5 34.5C15.224 34.5 15 34.276 15 34V28C15 27.724 15.224 27.5 15.5 27.5C15.776 27.5 16 27.724 16 28V34C16 34.276 15.776 34.5 15.5 34.5Z" fill="#263238"/>
<path d="M59 7.5C58.724 7.5 58.5 7.276 58.5 7V3C58.5 2.724 58.724 2.5 59 2.5C59.276 2.5 59.5 2.724 59.5 3V7C59.5 7.276 59.276 7.5 59 7.5Z" fill="#263238"/>
<path d="M61 5.5H57C56.724 5.5 56.5 5.276 56.5 5C56.5 4.724 56.724 4.5 57 4.5H61C61.276 4.5 61.5 4.724 61.5 5C61.5 5.276 61.276 5.5 61 5.5Z" fill="#263238"/>
<path d="M51 13.5C50.724 13.5 50.5 13.276 50.5 13V9C50.5 8.724 50.724 8.5 51 8.5C51.276 8.5 51.5 8.724 51.5 9V13C51.5 13.276 51.276 13.5 51 13.5Z" fill="#263238"/>
<path d="M53 11.5H49C48.724 11.5 48.5 11.276 48.5 11C48.5 10.724 48.724 10.5 49 10.5H53C53.276 10.5 53.5 10.724 53.5 11C53.5 11.276 53.276 11.5 53 11.5Z" fill="#263238"/>
</svg>
