<svg width="28" height="27" viewBox="0 0 28 27" fill="none" xmlns="http://www.w3.org/2000/svg">
<path d="M27.6597 25.5879L20.1177 18.0459C21.93 15.8701 22.8338 13.0793 22.641 10.2541C22.4481 7.42889 21.1735 4.78681 19.0823 2.87746C16.991 0.968119 14.2442 -0.061484 11.4131 0.00284241C8.58211 0.0671688 5.88486 1.22047 3.8825 3.22283C1.88014 5.22519 0.726837 7.92244 0.66251 10.7535C0.598184 13.5845 1.62779 16.3314 3.53713 18.4226C5.44648 20.5138 8.08856 21.7885 10.9138 21.9813C13.7389 22.1742 16.5297 21.2704 18.7055 19.458L26.2475 27L27.6597 25.5879ZM2.69274 11.0212C2.69274 9.24349 3.21988 7.50573 4.2075 6.02764C5.19513 4.54956 6.59888 3.39753 8.24124 2.71725C9.8836 2.03696 11.6908 1.85896 13.4343 2.20577C15.1778 2.55258 16.7794 3.40861 18.0364 4.66562C19.2934 5.92263 20.1494 7.52415 20.4962 9.26767C20.843 11.0112 20.665 12.8184 19.9847 14.4608C19.3045 16.1031 18.1524 17.5069 16.6743 18.4945C15.1963 19.4821 13.4585 20.0093 11.6808 20.0093C9.29785 20.0066 7.01323 19.0588 5.32821 17.3738C3.64319 15.6888 2.69538 13.4041 2.69274 11.0212Z" fill="#FF7468"/>
</svg>
