<svg width="38" height="39" viewBox="0 0 38 39" fill="none" xmlns="http://www.w3.org/2000/svg">
<path d="M27.8797 23.0664L27.0085 17.5199C26.9182 16.9289 26.6319 16.3916 26.2012 16.0044C25.7705 15.6173 25.2236 15.4058 24.6589 15.4081H14.6605C14.0963 15.407 13.5503 15.6189 13.1201 16.0059C12.69 16.3928 12.404 16.9296 12.3133 17.5199L11.4397 23.0715C10.7469 23.1048 10.0926 23.4192 9.6124 23.9496C9.13216 24.4801 8.86266 25.1859 8.85968 25.9211V33.2182H11.2597C11.2597 33.893 11.5125 34.5401 11.9626 35.0173C12.4127 35.4944 13.0232 35.7625 13.6597 35.7625C14.2962 35.7625 14.9067 35.4944 15.3567 35.0173C15.8068 34.5401 16.0597 33.893 16.0597 33.2182H23.2597C23.2597 33.893 23.5125 34.5401 23.9626 35.0173C24.4127 35.4944 25.0232 35.7625 25.6597 35.7625C26.2962 35.7625 26.9067 35.4944 27.3567 35.0173C27.8068 34.5401 28.0597 33.893 28.0597 33.2182H30.4597V25.9059C30.4578 25.1713 30.1884 24.4659 29.7076 23.9368C29.2269 23.4078 28.5721 23.0959 27.8797 23.0664ZM13.0597 30.6739C12.5823 30.6739 12.1245 30.4728 11.7869 30.115C11.4493 29.7571 11.2597 29.2717 11.2597 28.7656C11.2597 28.2596 11.4493 27.7742 11.7869 27.4163C12.1245 27.0585 12.5823 26.8574 13.0597 26.8574C13.5371 26.8574 13.9949 27.0585 14.3325 27.4163C14.67 27.7742 14.8597 28.2596 14.8597 28.7656C14.8597 29.2717 14.67 29.7571 14.3325 30.115C13.9949 30.4728 13.5371 30.6739 13.0597 30.6739ZM13.8733 23.041L14.6605 17.9524L24.6397 17.9346L25.4437 23.041H13.8733ZM26.2597 30.6739C25.7823 30.6739 25.3245 30.4728 24.9869 30.115C24.6493 29.7571 24.4597 29.2717 24.4597 28.7656C24.4597 28.2596 24.6493 27.7742 24.9869 27.4163C25.3245 27.0585 25.7823 26.8574 26.2597 26.8574C26.7371 26.8574 27.1949 27.0585 27.5325 27.4163C27.87 27.7742 28.0597 28.2596 28.0597 28.7656C28.0597 29.2717 27.87 29.7571 27.5325 30.115C27.1949 30.4728 26.7371 30.6739 26.2597 30.6739Z" fill="#5B45FF"/>
<path d="M30.4597 5.23101H15.5533C15.0867 4.09752 14.3183 3.13297 13.3423 2.45557C12.3663 1.77817 11.2251 1.41736 10.0585 1.41736C8.89193 1.41736 7.7507 1.77817 6.77469 2.45557C5.79867 3.13297 5.03029 4.09752 4.56371 5.23101H10.0597L11.2597 7.77531L10.0597 10.3196H4.56611C5.03269 11.4531 5.80107 12.4176 6.77709 13.095C7.7531 13.7724 8.89433 14.1333 10.0609 14.1333C11.2275 14.1333 12.3687 13.7724 13.3447 13.095C14.3207 12.4176 15.0891 11.4531 15.5557 10.3196H30.4597C31.0962 10.3196 31.7067 10.0515 32.1568 9.5744C32.6069 9.09725 32.8597 8.4501 32.8597 7.77531C32.8597 7.10052 32.6069 6.45337 32.1568 5.97622C31.7067 5.49907 31.0962 5.23101 30.4597 5.23101Z" fill="#5B45FF"/>
</svg>
