<svg width="38" height="40" viewBox="0 0 38 40" fill="none" xmlns="http://www.w3.org/2000/svg">
<path d="M33.8948 19.3109L33.6528 19.7543L33.8946 20.1979L35.9376 23.9444L35.938 23.9451C36.0035 24.065 36.0473 24.1998 36.0651 24.3418L36.984 24.2267L36.0651 24.3418C36.0829 24.4838 36.074 24.628 36.0394 24.7655L36.9374 24.9917L36.0394 24.7655C36.0048 24.903 35.9456 25.029 35.8675 25.137L36.6181 25.6795L35.8675 25.137C35.7896 25.2449 35.6948 25.3319 35.5909 25.3956L35.5908 25.3956L32.053 27.5634L31.6108 27.8344V28.3531V32.671C31.6108 32.963 31.5009 33.233 31.3207 33.424C31.1423 33.6131 30.9123 33.7085 30.6847 33.7085H26.6116H26.0615L25.7984 34.1916L23.7561 37.9406C23.756 37.9408 23.7559 37.941 23.7558 37.9412C23.6233 38.1831 23.4153 38.3433 23.1909 38.4069C22.9683 38.47 22.7293 38.4386 22.5216 38.3116L18.9846 36.1443L18.5005 35.8476L18.0165 36.1445L14.4829 38.312C14.3413 38.3988 14.1889 38.4402 14.0414 38.4407C13.8891 38.4392 13.7363 38.3962 13.5976 38.3112C13.4578 38.2257 13.3351 38.0993 13.2464 37.9391C13.2461 37.9386 13.2459 37.9381 13.2456 37.9376L11.203 34.1913L10.9397 33.7085H10.3899H6.31496C6.08736 33.7085 5.85733 33.6131 5.67892 33.424C5.49878 33.233 5.38885 32.963 5.38885 32.671V28.3531V27.8344L4.9466 27.5634L1.4127 25.398C1.41215 25.3977 1.41159 25.3973 1.41104 25.397C1.20157 25.2666 1.0345 25.0438 0.964427 24.7648C0.894103 24.4848 0.93214 24.1882 1.06438 23.9435C1.06459 23.9431 1.0648 23.9427 1.065 23.9423L3.10854 20.1982L3.35071 19.7546L3.10854 19.3109L1.06369 15.5643L1.06264 15.5624C0.997 15.4428 0.953055 15.3083 0.935153 15.1664C0.917248 15.0246 0.92604 14.8805 0.960633 14.7432C0.995216 14.6059 1.05437 14.48 1.13242 14.3723C1.2104 14.2646 1.3051 14.1779 1.409 14.1145L1.41071 14.1135L4.94846 11.9457L5.3907 11.6747V11.156V6.8381C5.3907 6.54606 5.50064 6.27609 5.68078 6.08512C5.85919 5.89598 6.08922 5.80063 6.31681 5.80063H10.3899H10.9397L11.203 5.31785L13.2478 1.5674L13.248 1.56704C13.3801 1.32451 13.5881 1.16384 13.8124 1.10011C14.0349 1.03693 14.2736 1.06822 14.4812 1.19517C14.4812 1.19522 14.4813 1.19526 14.4814 1.19531L18.0184 3.36462L18.5024 3.66145L18.9865 3.36481L22.5242 1.19702L22.5264 1.19571C22.6293 1.13224 22.7403 1.09271 22.8528 1.077C22.9651 1.06131 23.0795 1.06927 23.1901 1.10099C23.4158 1.16612 23.6246 1.32773 23.7581 1.57064C23.7582 1.5709 23.7584 1.57116 23.7585 1.57143L25.8003 5.31772L26.0635 5.80063H26.6135H30.6865C30.9141 5.80063 31.1442 5.89598 31.3226 6.08512C31.5027 6.27608 31.6127 6.54606 31.6127 6.8381V11.158V11.6767L32.0549 11.9476L35.5923 14.1152C35.8022 14.244 35.9701 14.4659 36.0404 14.7449C36.1109 15.0245 36.0724 15.3209 35.9395 15.5647L33.8948 19.3109ZM16.509 10.1454C15.8191 9.41352 14.8713 8.99124 13.8705 8.99089C12.8698 8.99053 11.9216 9.41215 11.2312 10.1436C10.5425 10.8732 10.1642 11.8519 10.1639 12.8621C10.1636 13.8722 10.5413 14.8513 11.2295 15.5813C11.9194 16.3132 12.8673 16.7355 13.868 16.7358C14.8688 16.7362 15.8169 16.3146 16.5073 15.5831C17.196 14.8536 17.5743 13.8748 17.5746 12.8646C17.575 11.8545 17.1972 10.8755 16.509 10.1454ZM21.6952 30.176C22.1486 30.3753 22.6366 30.4788 23.131 30.4789C24.1317 30.4793 25.0799 30.0577 25.7703 29.3263C26.459 28.5967 26.8373 27.6179 26.8376 26.6077C26.8379 25.5976 26.4602 24.6186 25.772 23.8885C25.0821 23.1566 24.1342 22.7344 23.1335 22.734C22.6391 22.7338 22.151 22.837 21.6975 23.0359C21.2441 23.2348 20.8357 23.5249 20.4942 23.8867C20.1528 24.2484 19.8846 24.675 19.7024 25.1407C19.5203 25.6064 19.427 26.1039 19.4269 26.6052C19.4267 27.1065 19.5196 27.604 19.7015 28.0699C19.8833 28.5358 20.1513 28.9625 20.4925 29.3244C20.8337 29.6865 21.2419 29.9768 21.6952 30.176Z" stroke="#00BB98" stroke-width="1.85223"/>
</svg>
