<svg width="24" height="25" viewBox="0 0 24 25" fill="none" xmlns="http://www.w3.org/2000/svg">
<path fill-rule="evenodd" clip-rule="evenodd" d="M0 12.7137C0 9.53112 1.26428 6.47887 3.51472 4.22843C5.76516 1.978 8.8174 0.713715 12 0.713715C15.1826 0.713715 18.2348 1.978 20.4853 4.22843C22.7357 6.47887 24 9.53112 24 12.7137C24 15.8963 22.7357 18.9486 20.4853 21.199C18.2348 23.4494 15.1826 24.7137 12 24.7137C8.8174 24.7137 5.76516 23.4494 3.51472 21.199C1.26428 18.9486 0 15.8963 0 12.7137H0ZM11.3152 17.8497L18.224 9.21291L16.976 8.21452L11.0848 15.5761L6.912 12.0993L5.888 13.3281L11.3152 17.8513V17.8497Z" fill="#F3632B"/>
</svg>
