<svg width="54" height="58" viewBox="0 0 54 58" fill="none" xmlns="http://www.w3.org/2000/svg">
<path d="M53.1791 19.7072L52.1461 15.3492L43.6021 23.8932L35.8241 21.7722L33.7031 13.9942L42.2471 5.45024L37.8891 4.41725C37.0451 4.21725 36.1581 4.46924 35.5441 5.08224L28.0111 12.6142C27.3771 13.2482 27.1311 14.1742 27.3671 15.0402L28.3431 18.6192C28.8151 20.3502 28.3231 22.2022 27.0551 23.4702L9.34714 41.1782C6.71614 40.8972 3.97314 41.9122 2.16114 44.2362C-0.0738633 47.1012 -0.0478637 51.2562 2.21914 54.0962C5.25314 57.8952 10.8101 58.1252 14.1491 54.7862C15.9401 52.9952 16.6991 50.5662 16.4361 48.2312L34.1251 30.5422C35.3941 29.2732 37.2451 28.7822 38.9761 29.2542L42.5551 30.2302C43.4211 30.4662 44.3461 30.2202 44.9811 29.5862L52.5141 22.0532C53.1281 21.4382 53.3801 20.5512 53.1791 19.7072ZM11.3211 51.9572C9.75914 53.5192 7.22614 53.5192 5.66414 51.9572C4.10214 50.3952 4.10214 47.8622 5.66414 46.3002C7.22614 44.7382 9.75914 44.7382 11.3211 46.3002C12.8831 47.8622 12.8831 50.3952 11.3211 51.9572Z" fill="#F3632B"/>
<path d="M8.48915 57.6282C8.33115 57.6282 8.17415 57.6242 8.01515 57.6152C5.56815 57.4782 3.37015 56.3392 1.82815 54.4072C-0.585849 51.3842 -0.611848 46.9762 1.76615 43.9282C3.54815 41.6432 6.29615 40.4272 9.15915 40.6582L26.7012 23.1162C27.8402 21.9772 28.2842 20.3042 27.8602 18.7492L26.8841 15.1702C26.6012 14.1352 26.8972 13.0202 27.6572 12.2602L35.1902 4.7272C35.9192 3.9962 36.9982 3.6892 38.0032 3.9292L42.3612 4.9632C42.5372 5.0052 42.6772 5.1392 42.7272 5.3132C42.7772 5.4872 42.7282 5.6752 42.6002 5.8032L34.2612 14.1422L36.2312 21.3652L43.4542 23.3352L51.7932 14.9962C51.9202 14.8682 52.1072 14.8182 52.2832 14.8692C52.4572 14.9182 52.5922 15.0582 52.6332 15.2352L53.6662 19.5932C53.9082 20.6132 53.6102 21.6652 52.8692 22.4062L45.3362 29.9402C44.5772 30.6992 43.4592 30.9952 42.4252 30.7132L38.8462 29.7372C37.2912 29.3142 35.6192 29.7572 34.4802 30.8962L16.9572 48.4162C17.1682 50.9212 16.2812 53.3602 14.5022 55.1392C12.9062 56.7352 10.7372 57.6282 8.48915 57.6282ZM8.48315 41.6312C6.17615 41.6312 4.00415 42.6852 2.55515 44.5432C0.458152 47.2312 0.482152 51.1172 2.61015 53.7832C3.97315 55.4902 5.91215 56.4962 8.07215 56.6162C10.1992 56.7322 12.2882 55.9382 13.7962 54.4312C15.4162 52.8112 16.1972 50.5712 15.9402 48.2852C15.9232 48.1342 15.9762 47.9832 16.0842 47.8762L33.7722 30.1882C35.1642 28.7972 37.2112 28.2532 39.1082 28.7712L42.6872 29.7472C43.3802 29.9372 44.1222 29.7382 44.6282 29.2322L52.1612 21.6982C52.6552 21.2042 52.8542 20.5032 52.6932 19.8232L51.8662 16.3372L43.9552 24.2482C43.8282 24.3752 43.6432 24.4232 43.4702 24.3772L35.6922 22.2562C35.5212 22.2102 35.3872 22.0762 35.3412 21.9052L33.2202 14.1272C33.1732 13.9542 33.2222 13.7692 33.3492 13.6422L41.2602 5.7312L37.7742 4.9042C37.1022 4.7442 36.3852 4.9482 35.8982 5.4362L28.3652 12.9692C27.8592 13.4752 27.6612 14.2192 27.8502 14.9092L28.8262 18.4892C29.3442 20.3882 28.8012 22.4332 27.4092 23.8252L9.70115 41.5312C9.59415 41.6372 9.44715 41.6902 9.29415 41.6752C9.02215 41.6462 8.75115 41.6312 8.48315 41.6312ZM8.49315 53.6262C7.34115 53.6262 6.18815 53.1882 5.31115 52.3112C3.55715 50.5572 3.55715 47.7022 5.31115 45.9472C7.06615 44.1932 9.92015 44.1932 11.6752 45.9472C13.4292 47.7012 13.4292 50.5562 11.6752 52.3112C10.7972 53.1872 9.64515 53.6262 8.49315 53.6262ZM8.49315 45.6302C7.59715 45.6302 6.70115 45.9712 6.01815 46.6532C4.65315 48.0182 4.65315 50.2382 6.01815 51.6032C7.38215 52.9672 9.60315 52.9672 10.9682 51.6032C12.3332 50.2382 12.3332 48.0182 10.9682 46.6532C10.2862 45.9712 9.38915 45.6302 8.49315 45.6302ZM11.3212 51.9572H11.3312H11.3212Z" fill="#263238"/>
<path d="M18.3802 41.4213C17.9962 41.4213 17.6121 41.2753 17.3191 40.9833L16.6122 40.2763C16.0272 39.6913 16.0272 38.7393 16.6122 38.1543L25.8042 28.9623C26.3892 28.3783 27.3411 28.3783 27.9251 28.9623L28.6321 29.6703C28.9151 29.9533 29.0711 30.3303 29.0711 30.7313C29.0711 31.1313 28.9151 31.5083 28.6321 31.7923L19.4402 40.9843C19.1481 41.2753 18.7652 41.4213 18.3802 41.4213ZM26.8662 29.5233C26.7382 29.5233 26.6102 29.5723 26.5122 29.6693L17.3201 38.8613C17.1251 39.0563 17.1251 39.3733 17.3201 39.5693L18.0271 40.2763C18.2221 40.4713 18.5392 40.4713 18.7342 40.2763L27.9261 31.0843C28.0201 30.9893 28.0722 30.8643 28.0722 30.7303C28.0722 30.5963 28.0201 30.4713 27.9261 30.3773L27.2192 29.6693C27.1222 29.5723 26.9942 29.5233 26.8662 29.5233Z" fill="#263238"/>
<path d="M45.7231 22.2722C45.6791 22.2722 45.6351 22.2662 45.5921 22.2542L37.8141 20.1322C37.6431 20.0852 37.5091 19.9522 37.4631 19.7812L35.3411 12.0032C35.2941 11.8302 35.3431 11.6452 35.4701 11.5182L41.1861 5.80321C41.3131 5.67621 41.4991 5.62821 41.6711 5.67421L49.4491 7.79521C49.6201 7.84121 49.7541 7.97521 49.8001 8.14621L51.9211 15.9242C51.9681 16.0972 51.9191 16.2822 51.7921 16.4092L46.0761 22.1252C45.9811 22.2212 45.8541 22.2722 45.7231 22.2722ZM38.3531 19.2432L45.5751 21.2132L50.8811 15.9072L48.9111 8.68421L41.6881 6.71421L36.3821 12.0192L38.3531 19.2432Z" fill="#263238"/>
<path d="M40.9791 17.1162C40.8511 17.1162 40.7231 17.0672 40.6251 16.9702C40.4301 16.7752 40.4301 16.4582 40.6251 16.2632L45.9281 10.9592C46.1231 10.7642 46.4401 10.7642 46.6351 10.9592C46.8301 11.1542 46.8301 11.4712 46.6351 11.6662L41.3321 16.9702C41.2351 17.0672 41.1071 17.1162 40.9791 17.1162Z" fill="#263238"/>
<path d="M46.2831 17.1162C46.1551 17.1162 46.0271 17.0672 45.9291 16.9702L40.6261 11.6662C40.4311 11.4712 40.4311 11.1542 40.6261 10.9592C40.8211 10.7642 41.1381 10.7642 41.3331 10.9592L46.6361 16.2632C46.8311 16.4582 46.8311 16.7752 46.6361 16.9702C46.5391 17.0672 46.4111 17.1162 46.2831 17.1162Z" fill="#263238"/>
<path d="M19.9692 28.2222C19.8412 28.2222 19.7132 28.1732 19.6152 28.0762L9.02516 17.4862C8.96116 17.4232 8.88016 17.3772 8.79316 17.3552L6.59116 16.8042C6.24516 16.7182 5.94116 16.5112 5.73416 16.2212L1.13716 9.78422C0.709158 9.18522 0.776158 8.37322 1.29716 7.85222L3.98816 5.16122C4.50816 4.64022 5.32016 4.57222 5.92116 5.00122L12.3572 9.59822C12.6472 9.80422 12.8542 10.1082 12.9402 10.4542L13.4912 12.6572C13.5132 12.7452 13.5592 12.8252 13.6232 12.8892L24.1802 23.4462C24.3752 23.6412 24.3752 23.9582 24.1802 24.1532C23.9852 24.3482 23.6682 24.3482 23.4732 24.1532L12.9152 13.5972C12.7232 13.4052 12.5862 13.1642 12.5202 12.9002L11.9692 10.6972C11.9402 10.5822 11.8712 10.4812 11.7752 10.4122L5.33916 5.81422C5.14016 5.67122 4.86816 5.69422 4.69516 5.86722L2.00416 8.55922C1.83016 8.73322 1.80816 9.00322 1.95016 9.20322L6.54716 15.6402C6.61616 15.7362 6.71716 15.8062 6.83316 15.8342L9.03516 16.3852C9.29816 16.4502 9.53916 16.5872 9.73216 16.7792L20.3222 27.3692C20.5172 27.5642 20.5172 27.8812 20.3222 28.0762C20.2252 28.1732 20.0972 28.2222 19.9692 28.2222Z" fill="#263238"/>
<path d="M35.7022 31.7882L27.9242 39.5662C27.5332 39.9572 27.5332 40.5902 27.9242 40.9802L28.6312 41.6872C29.0222 42.0782 29.6552 42.0782 30.0452 41.6872L30.3992 41.3332L44.8942 55.8292C45.8702 56.8052 47.4532 56.8052 48.4302 55.8292L51.9662 52.2932C52.9422 51.3172 52.9422 49.7342 51.9662 48.7572L37.4692 34.2632L37.8232 33.9092C38.2142 33.5182 38.2142 32.8852 37.8232 32.4952L37.1162 31.7882C36.7252 31.3972 36.0922 31.3972 35.7022 31.7882Z" fill="#F3632B"/>
<path d="M46.6622 57.0623C45.8612 57.0623 45.1082 56.7503 44.5412 56.1833L30.3982 42.0413C29.8322 42.6083 28.8432 42.6073 28.2762 42.0413L27.5692 41.3343C26.9852 40.7493 26.9852 39.7983 27.5692 39.2133L35.3482 31.4353C35.9142 30.8683 36.9032 30.8693 37.4702 31.4353L38.1772 32.1423C38.7612 32.7273 38.7612 33.6793 38.1772 34.2643L52.3192 48.4063C53.4882 49.5753 53.4882 51.4793 52.3192 52.6493L48.7832 56.1843C48.2162 56.7503 47.4632 57.0623 46.6622 57.0623ZM30.3982 40.8343C30.5312 40.8343 30.6582 40.8873 30.7522 40.9803L45.2482 55.4763C46.0292 56.2563 47.2972 56.2553 48.0772 55.4763L51.6132 51.9413C52.3932 51.1613 52.3932 49.8923 51.6132 49.1123L37.1162 34.6163C37.0222 34.5223 36.9702 34.3953 36.9702 34.2623C36.9702 34.1293 37.0232 34.0023 37.1162 33.9083L37.4702 33.5543C37.6652 33.3603 37.6652 33.0423 37.4702 32.8473L36.7632 32.1403C36.5752 31.9523 36.2462 31.9523 36.0562 32.1403L28.2782 39.9183C28.0842 40.1133 28.0842 40.4303 28.2782 40.6253L28.9852 41.3323C29.1732 41.5223 29.5032 41.5213 29.6922 41.3323L30.0462 40.9783C30.1392 40.8863 30.2662 40.8343 30.3982 40.8343Z" fill="#263238"/>
<path d="M46.6621 52.5252C46.1501 52.5252 45.6381 52.3302 45.2481 51.9412L34.6411 41.3342C34.2631 40.9562 34.0551 40.4542 34.0551 39.9202C34.0551 39.3852 34.2631 38.8832 34.6411 38.5062C35.3971 37.7502 36.7141 37.7512 37.4691 38.5062L48.0761 49.1122C48.8551 49.8922 48.8551 51.1612 48.0761 51.9412C47.6861 52.3302 47.1741 52.5252 46.6621 52.5252ZM47.7231 51.5872H47.7331H47.7231ZM36.0551 38.9192C35.7881 38.9192 35.5371 39.0232 35.3481 39.2122C35.1591 39.4012 35.0551 39.6522 35.0551 39.9192C35.0551 40.1862 35.1591 40.4372 35.3481 40.6262L45.9541 51.2332C46.3441 51.6232 46.9791 51.6222 47.3691 51.2332C47.7591 50.8432 47.7591 50.2092 47.3691 49.8182L36.7621 39.2122C36.5731 39.0232 36.3221 38.9192 36.0551 38.9192Z" fill="#263238"/>
<path d="M33.7611 1.70725C33.6331 1.70725 33.5051 1.65825 33.4071 1.56125C33.2121 1.36625 33.2121 1.04925 33.4071 0.85425L34.1141 0.14625C34.3091 -0.04875 34.6261 -0.04875 34.8211 0.14625C35.0161 0.34125 35.0161 0.65825 34.8211 0.85325L34.1141 1.56125C34.0171 1.65825 33.8891 1.70725 33.7611 1.70725Z" fill="#263238"/>
<path d="M23.8622 11.6062C23.7342 11.6062 23.6062 11.5572 23.5082 11.4602C23.3132 11.2652 23.3132 10.9482 23.5082 10.7532L31.9932 2.2682C32.1882 2.0732 32.5052 2.0732 32.7002 2.2682C32.8952 2.4632 32.8952 2.7802 32.7002 2.9752L24.2152 11.4602C24.1182 11.5582 23.9902 11.6062 23.8622 11.6062Z" fill="#263238"/>
<path d="M17.1451 56.5083C17.0171 56.5083 16.8891 56.4593 16.7911 56.3623C16.5961 56.1673 16.5961 55.8503 16.7911 55.6553L17.4981 54.9473C17.6931 54.7523 18.0101 54.7523 18.2051 54.9473C18.4001 55.1423 18.4001 55.4593 18.2051 55.6543L17.4981 56.3623C17.4001 56.4593 17.2721 56.5083 17.1451 56.5083Z" fill="#263238"/>
<path d="M19.2661 54.3862C19.1381 54.3862 19.0101 54.3372 18.9121 54.2402C18.7171 54.0452 18.7171 53.7282 18.9121 53.5332L27.3971 45.0482C27.5921 44.8532 27.9091 44.8532 28.1041 45.0482C28.2991 45.2432 28.2991 45.5602 28.1041 45.7552L19.6192 54.2402C19.5212 54.3372 19.3941 54.3862 19.2661 54.3862Z" fill="#263238"/>
</svg>
